<?xml version="1.0" encoding="utf-8"?><!-- Uploaded to: SVG Repo, www.svgrepo.com, Generator: SVG Repo Mixer Tools -->
<svg fill="#000000" width="800px" height="800px" viewBox="0 0 100 100" data-name="Layer 1" xmlns="http://www.w3.org/2000/svg"><path d="M72.51,26a7.5,7.5,0,0,0-6,12L60.27,49a5,5,0,0,0-.77,0,7.5,7.5,0,0,0-3.76,1l-7.93-5.84A7.1,7.1,0,0,0,48,42.5a7.5,7.5,0,1,0-13.41,4.59L28.14,59H27.5a7.5,7.5,0,1,0,5.91,2.88L39.86,50h.64a7.47,7.47,0,0,0,3.75-1l7.93,5.84A7.67,7.67,0,0,0,52,56.5,7.5,7.5,0,1,0,65.49,52l6.24-11h.77a7.5,7.5,0,0,0,0-15Z"/><polygon points="72.5 26 72.51 26 72.51 26 72.5 26"/></svg>