<svg width="894" height="231" viewBox="0 0 894 231" fill="none" xmlns="http://www.w3.org/2000/svg">
<rect width="894" height="231" fill="white"/>
<path d="M116.039 49.9365C115.395 62.9778 114.232 176.758 115.366 184.693C116.385 191.836 118.249 199.841 128.424 204.998C136.111 208.89 143.433 202.56 145.845 201.737C148.257 200.915 154.022 202.008 159.604 198.196C165.187 194.384 167.618 185.857 169.136 184.964C170.654 184.071 178.005 184.844 182.204 179.056C186.403 173.267 182.973 167.228 183.453 165.342C183.934 163.456 194.907 161.229 196.963 148.86C199.5 133.642 187.623 129.539 187.297 127.482C186.97 125.426 196.213 118.213 193.34 103.857C190.198 88.1776 180.474 86.3117 179.735 84.3756C178.995 82.4395 184.693 77.4838 181.733 68.5254C178.774 59.567 171.164 59.7676 170.049 57.8315C168.934 55.8954 171.654 51.0199 166.993 45.0009C162.141 38.731 152.292 41.901 150.659 40.9882C149.025 40.0753 149.064 33.8154 143.423 27.5757C139.003 22.6902 129.366 20.1622 122.967 25.8402C117.288 30.8561 116.721 36.9153 116.039 49.9365Z" fill="#112F33"/>
<path d="M133.575 214.277C130.619 214.282 127.703 213.574 125.052 212.211C110.456 204.787 108.63 192.007 107.756 185.867C106.449 176.748 107.756 60.8712 108.352 49.5051C108.967 37.0657 109.457 27.2446 117.96 19.6907C127.569 11.1837 141.751 14.0328 148.987 22.0281C151.836 25.1818 154.063 28.8905 155.54 32.9427C160.402 32.8123 167.868 33.3841 172.951 39.9649C175.852 43.5797 177.468 48.13 177.525 52.8457C180.21 54.0498 182.62 55.8348 184.596 58.0828C186.572 60.3308 188.069 62.9907 188.988 65.887C190.725 70.9055 190.701 76.4044 188.92 81.4062C192.995 84.6063 198.529 90.5552 200.845 102.192C202.555 110.306 201.195 118.796 197.049 125.887C201.248 130.02 206.658 137.594 204.515 150.224C202.728 160.918 196.098 166.365 191.745 169.164C192.152 171.733 192.057 174.36 191.466 176.89C190.875 179.419 189.8 181.797 188.306 183.881C183.857 190.02 177.553 191.545 173.739 192.177C171.932 195.688 168.934 201.366 163.784 204.887C158.211 208.689 152.677 209.081 149.371 209.311L148.18 209.402L147.421 209.823C144.797 211.368 139.686 214.277 133.575 214.277ZM131.739 30.5952C130.344 30.5428 128.979 31.0205 127.896 31.9395C124.946 34.5478 124.321 37.3065 123.668 50.3478C123.015 63.3891 121.986 175.514 122.967 183.54C123.841 189.689 124.994 194.334 131.787 197.785C134.113 198.969 136.918 197.574 140.08 195.779C141.155 195.118 142.287 194.563 143.462 194.123C145.054 193.649 146.697 193.386 148.353 193.341C150.726 193.17 153.157 193 155.386 191.495C157.375 190.141 159.143 186.69 160.325 184.412C161.699 181.744 162.881 179.397 165.37 177.982C166.91 177.168 168.588 176.674 170.308 176.528C172.903 176.146 174.978 175.735 176.074 174.23C176.814 173.227 176.756 172.224 176.218 169.606C175.651 167.541 175.588 165.362 176.035 163.266C176.996 159.504 179.802 157.858 182.05 156.544C185.721 154.387 188.594 152.351 189.401 147.516C190.525 140.744 187.479 138.246 184.5 135.839C182.723 134.394 180.292 132.408 179.696 128.816C179.1 125.225 180.897 122.356 182.329 120.159C184.395 116.999 187.229 112.665 185.798 105.523C184.107 97.0658 180.34 94.6181 177.601 92.8324C175.853 91.6988 173.681 90.2843 172.576 87.345C171.096 83.4427 172.663 80.0619 173.595 78.0355C174.613 75.8285 175.42 74.083 174.45 71.1537C173.595 68.5655 172.221 67.8733 169.645 66.7899C167.724 65.9773 165.072 64.8538 163.409 61.9446C162.246 59.6934 161.786 57.1189 162.093 54.5812C162.199 52.6551 162.247 51.6921 160.988 50.0669C160.027 48.7728 156.184 48.9935 154.127 49.0637C151.668 49.2042 149.323 49.3446 146.959 47.9903C143.74 46.1646 142.684 43.0547 141.838 40.5468C141.069 37.7712 139.709 35.213 137.86 33.0631C136.184 31.4817 134.008 30.6028 131.749 30.5952H131.739Z" fill="#112F33"/>
<path d="M107.573 52.5949C107.987 65.556 109.101 178.775 107.842 186.65C106.709 193.742 102.366 206.553 94.0732 207.897C85.781 209.241 80.4001 202.731 77.9115 201.878C75.4228 201.025 68.543 205.419 63.1045 201.537C57.666 197.654 58.8575 187.492 57.3393 185.767C55.8211 184.041 47.4039 186.078 43.3683 180.259C39.3326 174.441 42.8398 168.221 41.5619 166.536C40.2839 164.851 27.8503 163.326 26.0919 149.733C24.0933 134.133 36.0753 131.084 36.008 128.656C35.9408 126.228 26.0727 112.956 31.0692 96.6445C36.0657 80.3328 49.2104 78.5873 49.9791 77.1226C50.7478 75.658 44.7327 66.6695 52.6503 53.7085C60.5678 40.7474 71.9925 44.2485 73.6164 43.0948C75.2403 41.9412 73.3377 36.835 78.8435 29.6021C83.9265 22.9209 93.6505 21.2757 100.674 25.4991C107.045 29.3714 107.16 39.6339 107.573 52.5949Z" fill="#112F33"/>
<path d="M91.796 216.113C84.5126 216.113 79.2279 212.331 76.2011 210.164L76.1243 210.114L75.7687 210.194C72.0502 211.087 65.1223 212.742 58.771 208.188C53.0634 204.115 51.6125 197.394 50.9303 192.619C46.8851 192.077 41.1006 190.662 37.1707 184.994C34.5092 181.076 33.3036 176.28 33.7788 171.502C20.3267 164.66 19.0007 154.698 18.501 150.816C16.7907 137.695 22.5559 130.522 26.8029 126.69C23.9203 120.149 19.5004 108.091 23.7474 94.2068C25.0824 89.5417 27.3256 85.2145 30.3364 81.4963C33.3472 77.7781 37.0608 74.7489 41.2448 72.5983C40.3512 67.2313 40.2839 59.0253 46.1644 49.3948C52.8905 38.4501 61.8938 36.1127 67.5437 35.5811C68.5106 31.5756 70.3118 27.842 72.8189 24.6464C80.1695 14.9959 94.0829 12.3274 104.527 18.6274C114.386 24.516 114.799 37.4369 115.222 51.1203V52.3442C115.529 61.9546 116.875 178.745 115.395 187.984C113.54 199.631 107.141 213.916 95.2167 215.852C94.0845 216.03 92.9409 216.117 91.796 216.113ZM77.1716 193.802C78.1971 193.794 79.2178 193.95 80.1983 194.264C81.8831 194.892 83.4648 195.789 84.8874 196.922C87.77 198.999 90.0568 200.433 92.901 199.932C95.5049 199.51 99.1562 192.257 100.271 185.295C101.347 177.089 100.357 67.3116 99.8961 52.8257V51.5918C99.6463 43.7269 99.3484 33.9358 96.879 32.4511C93.0355 30.1338 87.5394 31.1169 84.897 34.5879C83.2985 36.5407 82.3302 38.9697 82.1297 41.5299C81.851 43.5965 81.3418 47.4386 77.8442 49.8362C75.6246 51.361 73.3473 51.4012 71.3391 51.4413C67.6494 51.5115 63.0565 51.6118 59.1361 58.0221C54.9756 64.8337 56.2535 69.5487 57.0607 72.6685C57.6083 74.7251 58.4347 77.8349 56.6859 81.0752C55.2158 83.7938 52.9193 84.7869 50.9207 85.6597C47.3078 87.2247 41.312 89.843 38.4294 99.0923C35.5468 108.653 39.3903 116.969 41.706 121.935C42.8494 124.382 43.6758 126.158 43.7334 128.435C43.8583 133.2 40.5626 135.839 38.5928 137.464C35.7102 139.811 32.9044 142.018 33.7884 148.75C34.4899 154.177 37.8433 156.033 42.1576 157.899C44.137 158.751 46.174 159.634 47.7306 161.731C50.1616 165.021 49.6524 168.673 49.3641 171.09C49.0758 173.508 48.9798 174.642 49.6812 175.655C50.2673 176.497 52.8232 176.768 54.4855 176.939C57.2048 177.22 60.5966 177.571 63.1333 180.51C65.2088 182.928 65.5835 185.797 66.0159 188.837C66.2081 190.321 66.7174 194.254 67.5437 195.016C68.3316 195.578 70.7818 195.016 72.4057 194.595C73.9609 194.145 75.5596 193.879 77.1716 193.802Z" fill="#112F33"/>
<path d="M121.381 26.321C124.562 23.5918 128.558 22.8233 132.341 23.3415C136.013 23.8447 139.439 25.5561 141.65 27.8015L141.86 28.0202C144.718 31.0775 146.138 34.1393 147.056 36.5661C147.287 37.1746 147.485 37.7429 147.668 38.2653C147.85 38.7843 148.019 39.2639 148.186 39.6823C148.353 40.0991 148.527 40.477 148.723 40.7868C148.919 41.0951 149.16 41.3711 149.475 41.5417C149.801 41.7177 150.254 41.766 150.705 41.779C151.179 41.7926 151.755 41.7665 152.389 41.7311C153.671 41.6597 155.234 41.5465 156.9 41.5983C160.138 41.6991 163.631 42.4204 166.002 45.1589L166.227 45.4294C168.555 48.3374 169.033 50.9498 169.075 53.0798C169.096 54.1738 169.005 55.0979 168.977 55.9655C168.951 56.7811 168.979 57.5892 169.35 58.2136C169.557 58.5601 169.888 58.8211 170.249 59.0358C170.613 59.2529 171.056 59.4503 171.533 59.6481C172.504 60.0511 173.655 60.4737 174.877 61.1159C177.288 62.3842 179.918 64.4878 181.398 68.822C182.882 73.1655 182.198 76.5228 181.232 79.0475C180.741 80.332 180.192 81.3678 179.779 82.2809C179.578 82.7247 179.406 83.1483 179.312 83.5349C179.219 83.919 179.189 84.3263 179.339 84.7057C179.49 85.088 179.834 85.4012 180.194 85.6725C180.57 85.9553 181.06 86.2616 181.603 86.6032C182.703 87.2946 184.104 88.1812 185.58 89.487C188.519 92.0881 191.791 96.3837 193.394 104.121C194.853 111.168 193.238 116.448 191.3 120.228C190.327 122.125 189.274 123.645 188.467 124.841C188.069 125.432 187.718 125.961 187.48 126.411C187.256 126.834 187.064 127.306 187.135 127.743C187.174 127.98 187.292 128.191 187.424 128.37C187.557 128.552 187.73 128.733 187.923 128.913C188.305 129.27 188.823 129.675 189.394 130.125C190.552 131.036 192.006 132.193 193.366 133.749C195.982 136.741 198.276 141.231 197.25 148.281L197.139 148.971C196.103 154.998 192.83 158.547 189.733 160.836C188.178 161.985 186.674 162.812 185.499 163.484C184.919 163.816 184.401 164.12 184.012 164.405C183.817 164.548 183.638 164.698 183.496 164.856C183.355 165.012 183.226 165.201 183.168 165.424C183.082 165.751 183.091 166.126 183.134 166.502C183.178 166.884 183.265 167.319 183.362 167.78C183.56 168.715 183.814 169.8 183.952 171.006C184.225 173.4 184.029 176.215 181.959 178.975C179.883 181.742 177.021 182.954 174.438 183.583C173.145 183.897 171.936 184.062 170.929 184.207C170.431 184.278 169.972 184.346 169.588 184.425C169.214 184.503 168.857 184.601 168.588 184.754C168.289 184.923 168.025 185.234 167.789 185.569C167.542 185.918 167.282 186.359 167.007 186.855C166.438 187.88 165.827 189.092 165.046 190.466C163.505 193.176 161.48 196.175 158.695 198.013C155.895 199.863 153.043 200.527 150.56 200.828C149.313 200.979 148.173 201.037 147.16 201.111C146.169 201.183 145.267 201.272 144.575 201.5C144.219 201.617 143.795 201.824 143.332 202.069C142.867 202.315 142.324 202.621 141.74 202.94C140.56 203.586 139.155 204.32 137.589 204.907C134.457 206.081 130.729 206.652 126.923 204.788C121.747 202.252 118.711 199.03 116.832 195.584C114.946 192.124 114.209 188.407 113.683 184.844C113.542 183.891 113.433 181.281 113.354 177.368C113.276 173.473 113.23 168.326 113.209 162.329C113.167 150.336 113.229 134.952 113.347 119.407C113.585 88.3126 114.052 56.5989 114.384 50.0837C115.093 37.0038 115.693 31.1794 121.38 26.322L121.381 26.321Z" fill="#FFF8EE" stroke="black" stroke-linejoin="bevel"/>
<path d="M109.017 53.4128C109.432 66.0498 110.551 176.438 109.287 184.116C108.149 191.032 103.79 203.522 95.4657 204.833C87.1419 206.143 81.7405 199.795 79.2424 198.964C76.7443 198.133 69.8383 202.417 64.3791 198.631C58.9199 194.846 60.116 184.938 58.592 183.256C57.0681 181.573 48.6188 183.559 44.5679 177.886C40.5169 172.213 44.0374 166.149 42.7546 164.505C41.4717 162.862 28.9908 161.376 27.2257 148.122C25.2195 132.913 37.2471 129.939 37.1796 127.572C37.1121 125.205 27.2065 112.265 32.222 96.3612C37.2375 80.4573 50.4322 78.7554 51.2038 77.3273C51.9754 75.8993 45.9375 67.1355 53.8851 54.4985C61.8328 41.8614 73.301 45.275 74.931 44.1502C76.5611 43.0254 74.6513 38.0468 80.178 30.9947C85.2803 24.4806 95.0413 22.8765 102.092 26.9943C108.487 30.7698 108.603 40.7757 109.017 53.4128Z" fill="#29A98C"/>
<path d="M111.999 116.096L82 61.493" stroke="#112F33" stroke-width="5" stroke-linecap="round"/>
<path d="M109.355 111.006H158.212" stroke="#112F33" stroke-width="5" stroke-linecap="round"/>
<path d="M116 123.782L145.268 178.797" stroke="#112F33" stroke-width="5" stroke-linecap="round"/>
<path d="M109.355 111.006H60.497" stroke="#112F33" stroke-width="5" stroke-linecap="round"/>
<path d="M109.355 111.006L141.218 73.4406" stroke="#112F33" stroke-width="5" stroke-linecap="round"/>
<path d="M109.355 111.006L77.491 148.571" stroke="#112F33" stroke-width="5" stroke-linecap="round"/>
<path d="M60.497 119.034C65.1898 119.034 68.994 115.296 68.994 110.686C68.994 106.075 65.1898 102.338 60.497 102.338C55.8042 102.338 52 106.075 52 110.686C52 115.296 55.8042 119.034 60.497 119.034Z" fill="#EC7367"/>
<path d="M147.497 191.534C152.19 191.534 155.994 187.796 155.994 183.186C155.994 178.575 152.19 174.838 147.497 174.838C142.804 174.838 139 178.575 139 183.186C139 187.796 142.804 191.534 147.497 191.534Z" fill="#112F33"/>
<path d="M141.218 81.7885C145.911 81.7885 149.715 78.051 149.715 73.4406C149.715 68.8303 145.911 65.0928 141.218 65.0928C136.526 65.0928 132.721 68.8303 132.721 73.4406C132.721 78.051 136.526 81.7885 141.218 81.7885Z" fill="#EC7367"/>
<path d="M77.491 156.919C82.1837 156.919 85.988 153.182 85.988 148.571C85.988 143.961 82.1837 140.223 77.491 140.223C72.7982 140.223 68.994 143.961 68.994 148.571C68.994 153.182 72.7982 156.919 77.491 156.919Z" fill="#FFF8EE"/>
<path d="M112.745 123.297C119.785 123.297 125.491 117.691 125.491 110.775C125.491 103.86 119.785 98.2535 112.745 98.2535C105.706 98.2535 100 103.86 100 110.775C100 117.691 105.706 123.297 112.745 123.297Z" fill="#29A98C" stroke="#112F33" stroke-width="8"/>
<path d="M77.497 61.8506C82.1898 61.8506 85.994 58.1132 85.994 53.5028C85.994 48.8924 82.1898 45.1549 77.497 45.1549C72.8042 45.1549 69 48.8924 69 53.5028C69 58.1132 72.8042 61.8506 77.497 61.8506Z" fill="#112F33"/>
<path d="M158.212 119.354C162.905 119.354 166.709 115.616 166.709 111.006C166.709 106.396 162.905 102.658 158.212 102.658C153.52 102.658 149.715 106.396 149.715 111.006C149.715 115.616 153.52 119.354 158.212 119.354Z" fill="#29A98C"/>
<path d="M540.762 180V152H552.442C554.228 152 555.735 152.267 556.962 152.8C558.188 153.333 559.108 154.133 559.722 155.2C560.362 156.24 560.682 157.52 560.682 159.04C560.682 160.56 560.255 161.853 559.402 162.92C558.575 163.987 557.415 164.72 555.922 165.12V164.32C557.175 164.587 558.268 165.067 559.202 165.76C560.135 166.427 560.855 167.267 561.362 168.28C561.895 169.293 562.162 170.453 562.162 171.76C562.162 173.093 561.948 174.28 561.522 175.32C561.122 176.333 560.508 177.187 559.682 177.88C558.882 178.573 557.908 179.107 556.762 179.48C555.615 179.827 554.308 180 552.842 180H540.762ZM545.082 175.84H552.602C553.695 175.84 554.615 175.68 555.362 175.36C556.135 175.04 556.722 174.573 557.122 173.96C557.548 173.32 557.762 172.56 557.762 171.68C557.762 170.853 557.535 170.147 557.082 169.56C556.655 168.973 556.042 168.533 555.242 168.24C554.442 167.92 553.495 167.76 552.402 167.76H545.082V175.84ZM545.082 163.6H552.202C553.002 163.6 553.708 163.44 554.322 163.12C554.962 162.8 555.455 162.36 555.802 161.8C556.175 161.24 556.362 160.6 556.362 159.88C556.362 158.68 555.962 157.76 555.162 157.12C554.362 156.48 553.215 156.16 551.722 156.16H545.082V163.6ZM570.468 189.2L574.708 179.4L574.748 182.68L564.268 159H569.068L575.628 174.44C575.762 174.707 575.922 175.12 576.108 175.68C576.295 176.213 576.455 176.747 576.588 177.28L575.548 177.52C575.762 176.96 575.962 176.4 576.148 175.84C576.362 175.28 576.562 174.72 576.748 174.16L582.228 159H587.108L578.468 180L574.908 189.2H570.468ZM610.007 180V138H616.367L631.667 162.9L628.607 162.84L644.087 138H650.087V180H643.607V162.78C643.607 159.18 643.687 155.94 643.847 153.06C644.047 150.18 644.367 147.32 644.807 144.48L645.647 146.7L631.907 167.94H627.947L614.627 146.94L615.287 144.48C615.727 147.16 616.027 149.92 616.187 152.76C616.387 155.56 616.487 158.9 616.487 162.78V180H610.007ZM661.322 180V148.5H667.502V180H661.322ZM664.322 141.54C663.002 141.54 661.982 141.2 661.262 140.52C660.542 139.84 660.182 138.88 660.182 137.64C660.182 136.48 660.542 135.54 661.262 134.82C662.022 134.1 663.042 133.74 664.322 133.74C665.642 133.74 666.662 134.08 667.382 134.76C668.102 135.44 668.462 136.4 668.462 137.64C668.462 138.8 668.082 139.74 667.322 140.46C666.602 141.18 665.602 141.54 664.322 141.54ZM677.002 180V148.5H683.182V154.98L682.102 155.7C682.502 154.3 683.282 153.02 684.442 151.86C685.602 150.66 686.982 149.7 688.582 148.98C690.182 148.22 691.822 147.84 693.502 147.84C695.902 147.84 697.902 148.32 699.502 149.28C701.102 150.2 702.302 151.62 703.102 153.54C703.902 155.46 704.302 157.88 704.302 160.8V180H698.122V161.22C698.122 159.42 697.882 157.94 697.402 156.78C696.922 155.58 696.182 154.72 695.182 154.2C694.182 153.64 692.942 153.4 691.462 153.48C690.262 153.48 689.162 153.68 688.162 154.08C687.162 154.44 686.282 154.96 685.522 155.64C684.802 156.32 684.222 157.12 683.782 158.04C683.382 158.92 683.182 159.88 683.182 160.92V180H680.122C679.602 180 679.082 180 678.562 180C678.042 180 677.522 180 677.002 180ZM725.825 180.6C722.945 180.6 720.365 179.9 718.085 178.5C715.845 177.06 714.065 175.12 712.745 172.68C711.425 170.2 710.765 167.38 710.765 164.22C710.765 161.06 711.405 158.26 712.685 155.82C714.005 153.34 715.785 151.4 718.025 150C720.265 148.56 722.805 147.84 725.645 147.84C727.205 147.84 728.705 148.1 730.145 148.62C731.625 149.1 732.945 149.78 734.105 150.66C735.265 151.5 736.165 152.44 736.805 153.48C737.485 154.48 737.825 155.5 737.825 156.54L736.025 156.66V135.6H742.205V180H736.025V172.5H737.225C737.225 173.46 736.905 174.42 736.265 175.38C735.625 176.3 734.765 177.16 733.685 177.96C732.645 178.76 731.425 179.4 730.025 179.88C728.665 180.36 727.265 180.6 725.825 180.6ZM726.665 175.26C728.545 175.26 730.205 174.78 731.645 173.82C733.085 172.86 734.205 171.56 735.005 169.92C735.845 168.24 736.265 166.34 736.265 164.22C736.265 162.1 735.845 160.22 735.005 158.58C734.205 156.9 733.085 155.58 731.645 154.62C730.205 153.66 728.545 153.18 726.665 153.18C724.785 153.18 723.125 153.66 721.685 154.62C720.245 155.58 719.105 156.9 718.265 158.58C717.465 160.22 717.065 162.1 717.065 164.22C717.065 166.34 717.465 168.24 718.265 169.92C719.105 171.56 720.245 172.86 721.685 173.82C723.125 174.78 724.785 175.26 726.665 175.26ZM779.693 180V138H786.173V180H779.693ZM752.273 180V138H758.753V180H752.273ZM755.093 162.18V155.94H782.573V162.18H755.093ZM807.397 180.6C805.157 180.6 803.197 180.08 801.517 179.04C799.877 178 798.597 176.54 797.677 174.66C796.797 172.78 796.357 170.54 796.357 167.94V148.5H802.537V166.26C802.537 168.1 802.817 169.7 803.377 171.06C803.977 172.38 804.817 173.4 805.897 174.12C807.017 174.84 808.357 175.2 809.917 175.2C811.077 175.2 812.137 175.02 813.097 174.66C814.057 174.26 814.877 173.72 815.557 173.04C816.277 172.36 816.837 171.54 817.237 170.58C817.637 169.62 817.837 168.58 817.837 167.46V148.5H824.017V180H817.837V173.4L818.917 172.68C818.437 174.16 817.617 175.5 816.457 176.7C815.337 177.9 813.997 178.86 812.437 179.58C810.877 180.26 809.197 180.6 807.397 180.6ZM849.245 180.6C847.885 180.6 846.525 180.38 845.165 179.94C843.845 179.5 842.625 178.92 841.505 178.2C840.425 177.44 839.505 176.62 838.745 175.74C838.025 174.82 837.545 173.9 837.305 172.98L838.865 172.14V179.82H832.685V135.6H838.865V155.7L837.905 155.16C838.105 154.24 838.545 153.36 839.225 152.52C839.905 151.64 840.765 150.86 841.805 150.18C842.885 149.46 844.045 148.9 845.285 148.5C846.525 148.06 847.785 147.84 849.065 147.84C851.905 147.84 854.425 148.54 856.625 149.94C858.825 151.34 860.565 153.28 861.845 155.76C863.125 158.2 863.765 161 863.765 164.16C863.765 167.32 863.125 170.14 861.845 172.62C860.605 175.1 858.885 177.06 856.685 178.5C854.485 179.9 852.005 180.6 849.245 180.6ZM848.225 174.96C850.065 174.96 851.705 174.5 853.145 173.58C854.585 172.62 855.725 171.34 856.565 169.74C857.405 168.1 857.825 166.24 857.825 164.16C857.825 162.12 857.405 160.3 856.565 158.7C855.765 157.06 854.645 155.78 853.205 154.86C851.765 153.94 850.105 153.48 848.225 153.48C846.345 153.48 844.685 153.94 843.245 154.86C841.805 155.78 840.665 157.06 839.825 158.7C838.985 160.3 838.565 162.12 838.565 164.16C838.565 166.24 838.985 168.1 839.825 169.74C840.665 171.34 841.805 172.62 843.245 173.58C844.685 174.5 846.345 174.96 848.225 174.96Z" fill="#112F33"/>
<path d="M251.646 129.28C245.417 129.28 239.699 128.171 234.494 125.952C229.289 123.733 224.766 120.576 220.926 116.48C217.086 112.299 214.099 107.392 211.966 101.76C209.918 96.128 208.894 89.9413 208.894 83.2C208.894 76.8 210.003 70.8693 212.222 65.408C214.526 59.8613 217.683 54.9973 221.694 50.816C225.705 46.6347 230.355 43.392 235.646 41.088C240.937 38.784 246.654 37.632 252.798 37.632C257.15 37.632 261.374 38.3147 265.47 39.68C269.651 40.96 273.406 42.7947 276.734 45.184C280.147 47.488 282.921 50.1333 285.054 53.12L275.838 62.72C273.363 60.2453 270.846 58.1973 268.286 56.576C265.811 54.8693 263.251 53.5893 260.606 52.736C258.046 51.8827 255.443 51.456 252.798 51.456C248.617 51.456 244.691 52.2667 241.022 53.888C237.438 55.424 234.281 57.6 231.55 60.416C228.905 63.232 226.814 66.6027 225.278 70.528C223.742 74.368 222.974 78.592 222.974 83.2C222.974 88.064 223.699 92.5013 225.15 96.512C226.686 100.437 228.819 103.808 231.55 106.624C234.281 109.44 237.523 111.616 241.278 113.152C245.118 114.603 249.342 115.328 253.95 115.328C256.766 115.328 259.539 114.944 262.27 114.176C265.001 113.408 267.561 112.299 269.95 110.848C272.339 109.397 274.515 107.691 276.478 105.728L283.39 116.992C281.427 119.296 278.739 121.387 275.326 123.264C271.998 125.141 268.243 126.635 264.062 127.744C259.966 128.768 255.827 129.28 251.646 129.28ZM299.097 128V33.28H312.281V128H299.097ZM333.142 128V60.8H346.326V128H333.142ZM339.542 45.952C336.726 45.952 334.55 45.2267 333.014 43.776C331.478 42.3253 330.71 40.2773 330.71 37.632C330.71 35.1573 331.478 33.152 333.014 31.616C334.635 30.08 336.811 29.312 339.542 29.312C342.358 29.312 344.534 30.0373 346.07 31.488C347.606 32.9387 348.374 34.9867 348.374 37.632C348.374 40.1067 347.563 42.112 345.942 43.648C344.406 45.184 342.273 45.952 339.542 45.952ZM366.591 128V60.8H379.775V74.624L377.471 76.16C378.324 73.1733 379.988 70.4427 382.463 67.968C384.938 65.408 387.882 63.36 391.295 61.824C394.708 60.2027 398.207 59.392 401.791 59.392C406.911 59.392 411.178 60.416 414.591 62.464C418.004 64.4267 420.564 67.456 422.271 71.552C423.978 75.648 424.831 80.8107 424.831 87.04V128H411.647V87.936C411.647 84.096 411.135 80.9387 410.111 78.464C409.087 75.904 407.508 74.0693 405.375 72.96C403.242 71.7653 400.596 71.2533 397.439 71.424C394.879 71.424 392.532 71.8507 390.399 72.704C388.266 73.472 386.388 74.5813 384.767 76.032C383.231 77.4827 381.994 79.1893 381.055 81.152C380.202 83.0293 379.775 85.0773 379.775 87.296V128H373.247C372.138 128 371.028 128 369.919 128C368.81 128 367.7 128 366.591 128ZM444.892 128V60.8H458.076V128H444.892ZM451.292 45.952C448.476 45.952 446.3 45.2267 444.764 43.776C443.228 42.3253 442.46 40.2773 442.46 37.632C442.46 35.1573 443.228 33.152 444.764 31.616C446.385 30.08 448.561 29.312 451.292 29.312C454.108 29.312 456.284 30.0373 457.82 31.488C459.356 32.9387 460.124 34.9867 460.124 37.632C460.124 40.1067 459.313 42.112 457.692 43.648C456.156 45.184 454.023 45.952 451.292 45.952ZM478.085 128V60.8H491.397V75.136L488.965 76.672C489.648 74.4533 490.714 72.32 492.165 70.272C493.701 68.224 495.536 66.432 497.669 64.896C499.888 63.2747 502.234 61.9947 504.709 61.056C507.269 60.1173 509.872 59.648 512.517 59.648C516.357 59.648 519.728 60.288 522.629 61.568C525.53 62.848 527.92 64.768 529.797 67.328C531.674 69.888 533.04 73.088 533.893 76.928L531.845 76.416L532.741 74.24C533.68 72.2773 534.96 70.4427 536.581 68.736C538.288 66.944 540.208 65.3653 542.341 64C544.474 62.6347 546.736 61.568 549.125 60.8C551.514 60.032 553.861 59.648 556.165 59.648C561.2 59.648 565.338 60.672 568.581 62.72C571.909 64.768 574.384 67.8827 576.005 72.064C577.712 76.2453 578.565 81.4507 578.565 87.68V128H565.253V88.448C565.253 84.608 564.741 81.4933 563.717 79.104C562.778 76.6293 561.328 74.7947 559.365 73.6C557.402 72.4053 554.885 71.808 551.813 71.808C549.424 71.808 547.162 72.2347 545.029 73.088C542.981 73.856 541.189 74.9653 539.653 76.416C538.117 77.8667 536.922 79.5733 536.069 81.536C535.216 83.4133 534.789 85.504 534.789 87.808V128H521.477V88.192C521.477 84.6933 520.965 81.7493 519.941 79.36C518.917 76.8853 517.424 75.008 515.461 73.728C513.498 72.448 511.109 71.808 508.293 71.808C505.904 71.808 503.685 72.2347 501.637 73.088C499.589 73.856 497.797 74.9653 496.261 76.416C494.725 77.7813 493.53 79.4453 492.677 81.408C491.824 83.2853 491.397 85.3333 491.397 87.552V128H478.085ZM627.576 129.28C620.664 129.28 614.52 127.829 609.144 124.928C603.853 121.941 599.672 117.888 596.6 112.768C593.613 107.648 592.12 101.76 592.12 95.104C592.12 89.8133 592.973 84.992 594.68 80.64C596.387 76.288 598.733 72.5333 601.72 69.376C604.792 66.1333 608.419 63.6587 612.6 61.952C616.867 60.16 621.475 59.264 626.424 59.264C630.776 59.264 634.829 60.1173 638.584 61.824C642.339 63.4453 645.581 65.7067 648.312 68.608C651.128 71.5093 653.261 74.9653 654.712 78.976C656.248 82.9013 656.973 87.2107 656.888 91.904L656.76 97.536H601.848L598.904 87.04H645.368L643.448 89.216V86.144C643.192 83.328 642.253 80.8107 640.632 78.592C639.011 76.3733 636.963 74.624 634.488 73.344C632.013 72.064 629.325 71.424 626.424 71.424C621.816 71.424 617.933 72.32 614.776 74.112C611.619 75.8187 609.229 78.3787 607.608 81.792C605.987 85.12 605.176 89.2587 605.176 94.208C605.176 98.9013 606.157 102.997 608.12 106.496C610.083 109.909 612.856 112.555 616.44 114.432C620.024 116.309 624.163 117.248 628.856 117.248C632.184 117.248 635.256 116.693 638.072 115.584C640.973 114.475 644.088 112.469 647.416 109.568L654.072 118.912C652.024 120.96 649.507 122.752 646.52 124.288C643.619 125.824 640.504 127.061 637.176 128C633.933 128.853 630.733 129.28 627.576 129.28ZM679.536 128V43.648H692.72V128H679.536ZM665.584 73.6V60.8H708.336V73.6H665.584ZM720.341 128V60.8H733.653V81.92L732.373 76.8C733.312 73.5573 734.89 70.6133 737.109 67.968C739.413 65.3227 742.016 63.232 744.917 61.696C747.904 60.16 750.976 59.392 754.133 59.392C755.584 59.392 756.949 59.52 758.229 59.776C759.594 60.032 760.661 60.3307 761.429 60.672L757.973 75.008C756.949 74.5813 755.797 74.24 754.517 73.984C753.322 73.6427 752.128 73.472 750.933 73.472C748.629 73.472 746.41 73.9413 744.277 74.88C742.229 75.7333 740.394 76.9707 738.773 78.592C737.237 80.128 736 81.9627 735.061 84.096C734.122 86.144 733.653 88.4053 733.653 90.88V128H720.341ZM774.142 128V60.8H787.326V128H774.142ZM780.542 45.952C777.726 45.952 775.55 45.2267 774.014 43.776C772.478 42.3253 771.71 40.2773 771.71 37.632C771.71 35.1573 772.478 33.152 774.014 31.616C775.635 30.08 777.811 29.312 780.542 29.312C783.358 29.312 785.534 30.0373 787.07 31.488C788.606 32.9387 789.374 34.9867 789.374 37.632C789.374 40.1067 788.563 42.112 786.942 43.648C785.406 45.184 783.273 45.952 780.542 45.952ZM852.263 128L830.503 99.712L828.583 97.28L800.295 60.8H816.935L838.311 88.704L840.487 91.52L868.391 128H852.263ZM800.423 128L826.919 93.44L834.727 102.784L816.039 128H800.423ZM841.255 95.488L833.959 86.272L850.471 60.8H866.087L841.255 95.488Z" fill="#112F33"/>
</svg>
