<svg width="816" height="658" viewBox="0 0 816 658" fill="none" xmlns="http://www.w3.org/2000/svg">
<path d="M341.869 531.841C321.912 531.841 307.432 521.871 299.138 516.158L298.928 516.026L297.954 516.238C287.765 518.591 268.782 522.955 251.379 510.949C235.74 500.212 231.765 482.494 229.895 469.906C218.811 468.478 202.962 464.749 192.194 449.807C184.901 439.477 181.598 426.835 182.9 414.238C146.04 396.203 142.407 369.942 141.038 359.708C136.352 325.118 152.148 306.209 163.785 296.107C155.887 278.865 143.776 247.077 155.413 210.477C159.071 198.179 165.217 186.772 173.467 176.97C181.717 167.169 191.892 159.183 203.357 153.514C200.908 139.366 200.724 117.733 216.837 92.3459C235.266 63.4941 259.936 57.3323 275.417 55.9307C278.066 45.3716 283.001 35.5294 289.871 27.1054C310.012 1.66497 348.135 -5.36948 376.754 11.2382C403.766 26.7616 404.898 60.8231 406.057 96.8945V100.121C406.899 125.455 410.585 433.332 406.531 457.688C401.449 488.391 383.915 526.049 351.242 531.153C348.139 531.621 345.006 531.851 341.869 531.841ZM301.797 473.026C304.607 473.006 307.404 473.416 310.091 474.243C314.707 475.9 319.041 478.264 322.939 481.251C330.837 486.725 337.103 490.507 344.897 489.184C352.032 488.074 362.036 468.954 365.09 450.601C368.039 428.968 365.327 139.577 364.063 101.39V98.1375C363.379 77.4043 362.563 51.5937 355.796 47.6798C345.265 41.5709 330.206 44.1626 322.965 53.3127C318.586 58.4605 315.932 64.8638 315.383 71.6128C314.619 77.0605 313.224 87.1891 303.64 93.5095C297.559 97.5292 291.319 97.635 285.816 97.7408C275.706 97.9259 263.121 98.1903 252.38 115.089C240.98 133.045 244.481 145.475 246.693 153.699C248.193 159.12 250.458 167.318 245.666 175.86C241.638 183.027 235.345 185.645 229.869 187.946C219.97 192.071 203.541 198.973 195.642 223.356C187.744 248.558 198.275 270.482 204.62 283.572C207.753 290.025 210.018 294.706 210.176 300.709C210.518 313.27 201.487 320.225 196.09 324.509C188.192 330.698 180.504 336.516 182.926 354.26C184.848 368.567 194.036 373.46 205.858 378.378C211.281 380.626 216.863 382.953 221.128 388.481C227.789 397.155 226.394 406.781 225.604 413.154C224.814 419.527 224.551 422.516 226.473 425.187C228.079 427.408 235.082 428.122 239.637 428.572C247.088 429.312 256.381 430.238 263.332 437.986C269.019 444.359 270.046 451.923 271.231 459.936C271.757 463.85 273.152 474.216 275.417 476.226C277.576 477.707 284.289 476.226 288.739 475.115C293 473.93 297.38 473.23 301.797 473.026Z" fill="#112F33"/>
<path d="M408.295 93.774C406.531 128.153 403.345 428.096 406.452 449.014C409.243 467.843 414.35 488.946 442.232 502.539C463.294 512.8 483.356 496.113 489.965 493.944C496.573 491.776 512.37 494.658 527.666 484.609C542.963 474.56 549.624 452.082 553.784 449.728C557.944 447.374 578.085 449.411 589.59 434.152C601.096 418.893 591.696 402.973 593.013 398.001C594.329 393.029 624.396 387.158 630.03 354.551C636.981 314.434 604.439 303.618 603.544 298.196C602.649 292.775 627.977 273.761 620.105 235.918C611.495 194.584 584.851 189.665 582.824 184.561C580.797 179.457 596.409 166.393 588.3 142.777C580.191 119.161 559.339 119.69 556.285 114.586C553.231 109.483 560.682 96.6301 547.913 80.7629C534.617 64.2346 507.631 72.5913 503.155 70.1848C498.679 67.7782 498.785 51.2764 483.33 34.8274C471.219 21.9485 444.812 15.2843 427.277 30.2523C411.717 43.475 410.164 59.448 408.295 93.774Z" fill="#112F33"/>
<path d="M456.344 527.001C448.246 527.013 440.254 525.149 432.991 521.553C392.998 501.984 387.996 468.293 385.6 452.108C382.019 428.069 385.6 122.599 387.232 92.6368C388.917 59.8447 390.26 33.9547 413.56 14.0414C439.888 -8.38426 478.749 -0.873787 498.574 20.2031C506.382 28.5167 512.483 38.2936 516.53 48.9756C529.852 48.6318 550.309 50.1392 564.236 67.4874C572.186 77.0164 576.613 89.0118 576.768 101.443C584.126 104.617 590.73 109.323 596.144 115.249C601.558 121.175 605.66 128.187 608.178 135.822C612.937 149.051 612.872 163.547 607.994 176.733C619.157 185.169 634.322 200.851 640.667 231.528C645.352 252.917 641.626 275.297 630.267 293.991C641.773 304.887 656.595 324.853 650.724 358.148C645.827 386.338 627.661 400.698 615.734 408.077C616.849 414.847 616.589 421.775 614.969 428.442C613.349 435.109 610.403 441.378 606.309 446.872C594.119 463.056 576.847 467.076 566.395 468.742C561.445 477.998 553.231 492.966 539.119 502.248C523.849 512.271 508.684 513.302 499.627 513.911L496.362 514.149L494.282 515.259C487.095 519.332 473.088 527.001 456.344 527.001ZM451.315 42.7874C447.493 42.6493 443.751 43.9084 440.784 46.3311C432.701 53.2069 430.99 60.4794 429.199 94.8583C427.409 129.237 424.592 424.816 427.277 445.973C429.673 462.184 432.833 474.428 451.447 483.525C457.818 486.646 465.506 482.97 474.168 478.236C477.114 476.494 480.217 475.033 483.435 473.873C487.798 472.622 492.301 471.929 496.836 471.81C503.339 471.36 510 470.911 516.108 466.944C521.558 463.374 526.403 454.277 529.641 448.273C533.406 441.239 536.644 435.051 543.463 431.322C547.685 429.176 552.281 427.874 556.996 427.487C564.105 426.482 569.791 425.398 572.793 421.431C574.82 418.787 574.662 416.142 573.188 409.24C571.634 403.798 571.462 398.052 572.688 392.527C575.32 382.61 583.008 378.273 589.169 374.808C599.226 369.123 607.098 363.754 609.31 351.008C612.39 333.157 604.044 326.572 595.883 320.225C591.012 316.417 584.351 311.181 582.719 301.714C581.086 292.246 586.01 284.683 589.932 278.891C595.593 270.561 603.36 259.137 599.437 240.308C594.803 218.014 584.483 211.561 576.979 206.854C572.187 203.866 566.237 200.137 563.209 192.389C559.155 182.101 563.446 173.189 566 167.847C568.791 162.029 571.003 157.428 568.343 149.706C566 142.883 562.235 141.058 555.179 138.202C549.914 136.06 542.647 133.098 538.092 125.429C534.905 119.495 533.644 112.708 534.485 106.018C534.775 100.941 534.907 98.4019 531.458 94.1178C528.825 90.7063 518.294 91.2881 512.659 91.4733C505.919 91.8435 499.495 92.2137 493.019 88.6436C484.199 83.8306 481.303 75.6325 478.986 69.0212C476.878 61.7044 473.152 54.9605 468.086 49.293C463.494 45.1242 457.531 42.8072 451.341 42.7874H451.315Z" fill="#112F33"/>
<path d="M389.147 96.3874C390.353 131.857 393.607 441.693 389.933 463.244C386.623 482.653 373.944 517.711 349.738 521.389C325.531 525.068 309.823 507.251 302.558 504.918C295.293 502.584 275.21 514.609 259.334 503.984C243.458 493.36 246.936 465.55 242.504 460.828C238.072 456.106 213.501 461.679 201.72 445.756C189.939 429.833 200.177 412.812 196.447 408.2C192.716 403.588 156.42 399.415 151.287 362.216C145.453 319.527 180.431 311.181 180.234 304.537C180.038 297.893 151.231 261.573 165.817 216.934C180.403 172.295 218.774 167.519 221.018 163.51C223.262 159.502 205.703 134.904 228.816 99.4347C251.929 63.9653 285.28 73.5464 290.02 70.3893C294.76 67.2322 289.207 53.2585 305.279 33.4648C320.117 15.181 348.503 10.6787 369.008 22.2365C387.604 32.8334 387.941 60.918 389.147 96.3874Z" fill="#29A98C"/>
<path d="M402.797 89.3815C400.891 124.908 397.45 434.863 400.806 456.48C403.821 475.937 409.339 497.745 439.46 511.792C462.215 522.395 483.888 505.151 491.027 502.91C498.167 500.669 515.233 503.648 531.758 493.263C548.283 482.879 555.48 459.65 559.974 457.218C564.468 454.785 586.226 456.89 598.656 441.121C611.086 425.353 600.932 408.902 602.354 403.764C603.776 398.626 636.258 392.559 642.345 358.864C649.854 317.407 614.698 306.23 613.731 300.628C612.764 295.025 640.126 275.377 631.622 236.27C622.321 193.556 593.536 188.473 591.346 183.199C589.156 177.925 606.023 164.424 597.262 140.02C588.502 115.617 565.975 116.163 562.676 110.889C559.376 105.614 567.426 92.333 553.631 75.9361C539.267 58.8561 510.113 67.4917 505.277 65.0049C500.442 62.518 500.556 45.4653 483.86 28.4672C470.776 15.1584 442.248 8.27176 423.305 23.7395C406.495 37.4035 404.816 53.9097 402.797 89.3815Z" fill="#FFF8EE"/>
<path d="M397.154 264.17V91.0789" stroke="#112F33" stroke-width="12" stroke-linecap="round"/>
<path d="M397.154 264.17H531.026" stroke="#112F33" stroke-width="12" stroke-linecap="round"/>
<path d="M397.154 264.17V437.262" stroke="#112F33" stroke-width="12" stroke-linecap="round"/>
<path d="M397.154 264.17H263.282" stroke="#112F33" stroke-width="12" stroke-linecap="round"/>
<path d="M397.154 264.17L484.462 160.315" stroke="#112F33" stroke-width="12" stroke-linecap="round"/>
<path d="M397.154 264.17L309.846 368.025" stroke="#112F33" stroke-width="12" stroke-linecap="round"/>
<path d="M397.154 460.341C410.012 460.341 420.436 450.008 420.436 437.262C420.436 424.516 410.012 414.183 397.154 414.183C384.296 414.183 373.872 424.516 373.872 437.262C373.872 450.008 384.296 460.341 397.154 460.341Z" fill="#EC7367"/>
<path d="M263.282 287.249C276.14 287.249 286.564 276.916 286.564 264.17C286.564 251.424 276.14 241.091 263.282 241.091C250.424 241.091 240 251.424 240 264.17C240 276.916 250.424 287.249 263.282 287.249Z" fill="#112F33"/>
<path d="M484.462 183.394C497.32 183.394 507.744 173.062 507.744 160.315C507.744 147.569 497.32 137.237 484.462 137.237C471.604 137.237 461.18 147.569 461.18 160.315C461.18 173.062 471.604 183.394 484.462 183.394Z" fill="#EC7367"/>
<path d="M309.846 391.104C322.705 391.104 333.128 380.771 333.128 368.025C333.128 355.279 322.705 344.946 309.846 344.946C296.988 344.946 286.564 355.279 286.564 368.025C286.564 380.771 296.988 391.104 309.846 391.104Z" fill="#FFF8EE"/>
<path d="M397.154 298.789C416.442 298.789 432.077 283.289 432.077 264.17C432.077 245.051 416.442 229.552 397.154 229.552C377.867 229.552 362.231 245.051 362.231 264.17C362.231 283.289 377.867 298.789 397.154 298.789Z" fill="#29A98C" stroke="#112F33" stroke-width="8"/>
<path d="M397.154 114.158C410.012 114.158 420.436 103.825 420.436 91.0789C420.436 78.3328 410.012 68 397.154 68C384.296 68 373.872 78.3328 373.872 91.0789C373.872 103.825 384.296 114.158 397.154 114.158Z" fill="#112F33"/>
<path d="M531.026 287.249C543.884 287.249 554.308 276.916 554.308 264.17C554.308 251.424 543.884 241.091 531.026 241.091C518.168 241.091 507.744 251.424 507.744 264.17C507.744 276.916 518.168 287.249 531.026 287.249Z" fill="#112F33"/>
<path d="M94.8409 656V551H110.741L148.991 613.25L141.341 613.1L180.041 551H195.041V656H178.841V612.95C178.841 603.95 179.041 595.85 179.441 588.65C179.941 581.45 180.741 574.3 181.841 567.2L183.941 572.75L149.591 625.85H139.691L106.391 573.35L108.041 567.2C109.141 573.9 109.891 580.8 110.291 587.9C110.791 594.9 111.041 603.25 111.041 612.95V656H94.8409ZM223.13 656V577.25H238.58V656H223.13ZM230.63 559.85C227.33 559.85 224.78 559 222.98 557.3C221.18 555.6 220.28 553.2 220.28 550.1C220.28 547.2 221.18 544.85 222.98 543.05C224.88 541.25 227.43 540.35 230.63 540.35C233.93 540.35 236.48 541.2 238.28 542.9C240.08 544.6 240.98 547 240.98 550.1C240.98 553 240.03 555.35 238.13 557.15C236.33 558.95 233.83 559.85 230.63 559.85ZM262.328 656V577.25H277.778V593.45L275.078 595.25C276.078 591.75 278.028 588.55 280.928 585.65C283.828 582.65 287.278 580.25 291.278 578.45C295.278 576.55 299.378 575.6 303.578 575.6C309.578 575.6 314.578 576.8 318.578 579.2C322.578 581.5 325.578 585.05 327.578 589.85C329.578 594.65 330.578 600.7 330.578 608V656H315.128V609.05C315.128 604.55 314.528 600.85 313.328 597.95C312.128 594.95 310.278 592.8 307.778 591.5C305.278 590.1 302.178 589.5 298.478 589.7C295.478 589.7 292.728 590.2 290.228 591.2C287.728 592.1 285.528 593.4 283.628 595.1C281.828 596.8 280.378 598.8 279.278 601.1C278.278 603.3 277.778 605.7 277.778 608.3V656H270.128C268.828 656 267.528 656 266.228 656C264.928 656 263.628 656 262.328 656ZM384.387 657.5C377.187 657.5 370.737 655.75 365.037 652.25C359.437 648.65 354.987 643.8 351.687 637.7C348.387 631.5 346.737 624.45 346.737 616.55C346.737 608.65 348.337 601.65 351.537 595.55C354.837 589.35 359.287 584.5 364.887 581C370.487 577.4 376.837 575.6 383.937 575.6C387.837 575.6 391.587 576.25 395.187 577.55C398.887 578.75 402.187 580.45 405.087 582.65C407.987 584.75 410.237 587.1 411.837 589.7C413.537 592.2 414.387 594.75 414.387 597.35L409.887 597.65V545H425.337V656H409.887V637.25H412.887C412.887 639.65 412.087 642.05 410.487 644.45C408.887 646.75 406.737 648.9 404.037 650.9C401.437 652.9 398.387 654.5 394.887 655.7C391.487 656.9 387.987 657.5 384.387 657.5ZM386.487 644.15C391.187 644.15 395.337 642.95 398.937 640.55C402.537 638.15 405.337 634.9 407.337 630.8C409.437 626.6 410.487 621.85 410.487 616.55C410.487 611.25 409.437 606.55 407.337 602.45C405.337 598.25 402.537 594.95 398.937 592.55C395.337 590.15 391.187 588.95 386.487 588.95C381.787 588.95 377.637 590.15 374.037 592.55C370.437 594.95 367.587 598.25 365.487 602.45C363.487 606.55 362.487 611.25 362.487 616.55C362.487 621.85 363.487 626.6 365.487 630.8C367.587 634.9 370.437 638.15 374.037 640.55C377.637 642.95 381.787 644.15 386.487 644.15ZM519.055 656V551H535.255V656H519.055ZM450.505 656V551H466.705V656H450.505ZM457.555 611.45V595.85H526.255V611.45H457.555ZM588.316 657.5C582.716 657.5 577.816 656.2 573.616 653.6C569.516 651 566.316 647.35 564.016 642.65C561.816 637.95 560.716 632.35 560.716 625.85V577.25H576.166V621.65C576.166 626.25 576.866 630.25 578.266 633.65C579.766 636.95 581.866 639.5 584.566 641.3C587.366 643.1 590.716 644 594.616 644C597.516 644 600.166 643.55 602.566 642.65C604.966 641.65 607.016 640.3 608.716 638.6C610.516 636.9 611.916 634.85 612.916 632.45C613.916 630.05 614.416 627.45 614.416 624.65V577.25H629.866V656H614.416V639.5L617.116 637.7C615.916 641.4 613.866 644.75 610.966 647.75C608.166 650.75 604.816 653.15 600.916 654.95C597.016 656.65 592.816 657.5 588.316 657.5ZM692.937 657.5C689.537 657.5 686.137 656.95 682.737 655.85C679.437 654.75 676.387 653.3 673.587 651.5C670.887 649.6 668.587 647.55 666.687 645.35C664.887 643.05 663.687 640.75 663.087 638.45L666.987 636.35V655.55H651.537V545H666.987V595.25L664.587 593.9C665.087 591.6 666.187 589.4 667.887 587.3C669.587 585.1 671.737 583.15 674.337 581.45C677.037 579.65 679.937 578.25 683.037 577.25C686.137 576.15 689.287 575.6 692.487 575.6C699.587 575.6 705.887 577.35 711.387 580.85C716.887 584.35 721.237 589.2 724.437 595.4C727.637 601.5 729.237 608.5 729.237 616.4C729.237 624.3 727.637 631.35 724.437 637.55C721.337 643.75 717.037 648.65 711.537 652.25C706.037 655.75 699.837 657.5 692.937 657.5ZM690.387 643.4C694.987 643.4 699.087 642.25 702.687 639.95C706.287 637.55 709.137 634.35 711.237 630.35C713.337 626.25 714.387 621.6 714.387 616.4C714.387 611.3 713.337 606.75 711.237 602.75C709.237 598.65 706.437 595.45 702.837 593.15C699.237 590.85 695.087 589.7 690.387 589.7C685.687 589.7 681.537 590.85 677.937 593.15C674.337 595.45 671.487 598.65 669.387 602.75C667.287 606.75 666.237 611.3 666.237 616.4C666.237 621.6 667.287 626.25 669.387 630.35C671.487 634.35 674.337 637.55 677.937 639.95C681.537 642.25 685.687 643.4 690.387 643.4Z" fill="#112F33"/>
</svg>
