<svg width="999" height="231" viewBox="0 0 999 231" fill="none" xmlns="http://www.w3.org/2000/svg">
<rect width="999" height="231" fill="white"/>
<path d="M116.039 49.9365C115.395 62.9778 114.232 176.758 115.366 184.693C116.385 191.836 118.249 199.841 128.424 204.998C136.111 208.89 143.433 202.56 145.845 201.737C148.257 200.915 154.022 202.008 159.604 198.196C165.187 194.384 167.618 185.857 169.136 184.964C170.654 184.071 178.005 184.844 182.204 179.056C186.403 173.267 182.973 167.228 183.453 165.342C183.934 163.456 194.907 161.229 196.963 148.86C199.5 133.642 187.623 129.539 187.297 127.482C186.97 125.426 196.213 118.213 193.34 103.857C190.198 88.1776 180.474 86.3117 179.735 84.3756C178.995 82.4395 184.693 77.4838 181.733 68.5254C178.774 59.567 171.164 59.7676 170.049 57.8315C168.934 55.8954 171.654 51.0199 166.993 45.0009C162.141 38.731 152.292 41.901 150.659 40.9882C149.025 40.0753 149.064 33.8154 143.423 27.5757C139.003 22.6902 129.366 20.1622 122.967 25.8402C117.288 30.8561 116.721 36.9153 116.039 49.9365Z" fill="#112F33"/>
<path d="M133.575 214.277C130.619 214.282 127.703 213.574 125.052 212.211C110.456 204.787 108.63 192.007 107.756 185.867C106.449 176.748 107.756 60.8711 108.352 49.5051C108.967 37.0657 109.457 27.2446 117.96 19.6907C127.569 11.1837 141.751 14.0328 148.987 22.0281C151.836 25.1818 154.063 28.8905 155.54 32.9427C160.402 32.8123 167.868 33.3841 172.951 39.9649C175.852 43.5797 177.468 48.13 177.525 52.8457C180.21 54.0498 182.62 55.8348 184.596 58.0828C186.572 60.3308 188.069 62.9907 188.988 65.887C190.725 70.9055 190.701 76.4044 188.92 81.4062C192.995 84.6063 198.529 90.5552 200.845 102.192C202.555 110.306 201.195 118.796 197.049 125.887C201.248 130.02 206.658 137.594 204.515 150.224C202.728 160.918 196.098 166.365 191.745 169.164C192.152 171.733 192.057 174.36 191.466 176.89C190.875 179.419 189.8 181.797 188.306 183.881C183.857 190.02 177.553 191.545 173.739 192.177C171.932 195.688 168.934 201.366 163.784 204.887C158.211 208.689 152.677 209.081 149.371 209.311L148.18 209.402L147.421 209.823C144.797 211.368 139.686 214.277 133.575 214.277ZM131.739 30.5952C130.344 30.5428 128.979 31.0205 127.896 31.9395C124.946 34.5478 124.321 37.3065 123.668 50.3478C123.015 63.3891 121.986 175.514 122.967 183.54C123.841 189.689 124.994 194.334 131.787 197.785C134.113 198.969 136.918 197.574 140.08 195.779C141.155 195.118 142.287 194.563 143.462 194.123C145.054 193.649 146.697 193.386 148.353 193.341C150.726 193.17 153.157 193 155.386 191.495C157.375 190.141 159.143 186.69 160.325 184.412C161.699 181.744 162.881 179.397 165.37 177.982C166.91 177.168 168.588 176.674 170.308 176.528C172.903 176.146 174.978 175.735 176.074 174.23C176.814 173.227 176.756 172.224 176.218 169.606C175.651 167.541 175.588 165.362 176.035 163.266C176.996 159.504 179.802 157.858 182.05 156.544C185.721 154.387 188.594 152.351 189.401 147.516C190.525 140.744 187.479 138.246 184.5 135.839C182.723 134.394 180.292 132.408 179.696 128.816C179.1 125.225 180.897 122.356 182.329 120.159C184.395 116.999 187.229 112.665 185.798 105.523C184.107 97.0658 180.34 94.6181 177.601 92.8324C175.853 91.6988 173.681 90.2843 172.576 87.345C171.096 83.4427 172.663 80.0619 173.595 78.0355C174.613 75.8285 175.42 74.083 174.45 71.1537C173.595 68.5655 172.221 67.8733 169.645 66.7899C167.724 65.9773 165.072 64.8538 163.409 61.9446C162.246 59.6934 161.786 57.1189 162.093 54.5812C162.199 52.6551 162.247 51.6921 160.988 50.0669C160.027 48.7728 156.184 48.9935 154.127 49.0637C151.668 49.2042 149.323 49.3446 146.959 47.9903C143.74 46.1646 142.684 43.0547 141.838 40.5468C141.069 37.7712 139.709 35.213 137.86 33.0631C136.184 31.4817 134.008 30.6028 131.749 30.5952H131.739Z" fill="#112F33"/>
<path d="M107.573 52.5949C107.987 65.556 109.101 178.775 107.842 186.65C106.709 193.742 102.366 206.553 94.0732 207.897C85.781 209.241 80.4001 202.731 77.9115 201.878C75.4228 201.025 68.543 205.419 63.1045 201.537C57.666 197.654 58.8575 187.492 57.3393 185.767C55.8211 184.041 47.4039 186.078 43.3683 180.259C39.3326 174.441 42.8398 168.221 41.5619 166.536C40.2839 164.851 27.8503 163.326 26.0919 149.733C24.0933 134.133 36.0753 131.084 36.008 128.656C35.9408 126.228 26.0727 112.956 31.0692 96.6445C36.0657 80.3328 49.2104 78.5873 49.9791 77.1226C50.7478 75.658 44.7327 66.6695 52.6503 53.7085C60.5678 40.7474 71.9925 44.2485 73.6164 43.0948C75.2403 41.9412 73.3377 36.835 78.8435 29.6021C83.9265 22.9209 93.6505 21.2757 100.674 25.4991C107.045 29.3714 107.16 39.6339 107.573 52.5949Z" fill="#112F33"/>
<path d="M91.796 216.113C84.5126 216.113 79.2279 212.331 76.2011 210.164L76.1243 210.114L75.7687 210.194C72.0502 211.087 65.1223 212.742 58.771 208.188C53.0634 204.115 51.6125 197.394 50.9303 192.619C46.8851 192.077 41.1006 190.662 37.1707 184.994C34.5092 181.076 33.3036 176.28 33.7788 171.502C20.3267 164.66 19.0007 154.698 18.501 150.816C16.7907 137.695 22.5559 130.522 26.8029 126.69C23.9203 120.149 19.5004 108.091 23.7474 94.2068C25.0824 89.5417 27.3256 85.2145 30.3364 81.4963C33.3472 77.7781 37.0608 74.7489 41.2448 72.5983C40.3512 67.2313 40.2839 59.0253 46.1644 49.3948C52.8905 38.4501 61.8938 36.1127 67.5437 35.5811C68.5106 31.5756 70.3118 27.842 72.8189 24.6464C80.1695 14.9959 94.0829 12.3274 104.527 18.6274C114.386 24.516 114.799 37.4369 115.222 51.1203V52.3442C115.529 61.9546 116.875 178.745 115.395 187.984C113.54 199.631 107.141 213.916 95.2167 215.852C94.0845 216.03 92.9409 216.117 91.796 216.113ZM77.1716 193.802C78.1971 193.794 79.2178 193.95 80.1983 194.264C81.8831 194.892 83.4648 195.789 84.8874 196.922C87.77 198.999 90.0568 200.433 92.901 199.932C95.5049 199.51 99.1562 192.257 100.271 185.295C101.347 177.089 100.357 67.3116 99.8961 52.8257V51.5918C99.6463 43.7269 99.3484 33.9358 96.879 32.4511C93.0355 30.1338 87.5393 31.1169 84.897 34.5879C83.2985 36.5407 82.3302 38.9697 82.1297 41.5299C81.851 43.5965 81.3418 47.4386 77.8442 49.8362C75.6246 51.361 73.3473 51.4012 71.3391 51.4413C67.6494 51.5115 63.0565 51.6118 59.1361 58.0221C54.9756 64.8337 56.2535 69.5487 57.0607 72.6685C57.6083 74.7251 58.4347 77.8349 56.6859 81.0752C55.2158 83.7938 52.9193 84.7869 50.9207 85.6597C47.3078 87.2247 41.312 89.843 38.4294 99.0923C35.5468 108.653 39.3903 116.969 41.706 121.935C42.8494 124.382 43.6758 126.158 43.7334 128.435C43.8583 133.2 40.5626 135.839 38.5928 137.464C35.7102 139.811 32.9044 142.018 33.7884 148.75C34.4899 154.177 37.8433 156.033 42.1576 157.899C44.137 158.751 46.174 159.634 47.7306 161.731C50.1616 165.021 49.6524 168.673 49.3641 171.09C49.0758 173.508 48.9798 174.642 49.6812 175.655C50.2673 176.497 52.8232 176.768 54.4855 176.939C57.2048 177.22 60.5966 177.571 63.1333 180.51C65.2088 182.928 65.5835 185.797 66.0159 188.837C66.2081 190.321 66.7174 194.254 67.5437 195.016C68.3316 195.578 70.7818 195.016 72.4057 194.595C73.9609 194.145 75.5596 193.879 77.1716 193.802Z" fill="#112F33"/>
<path d="M121.381 26.321C124.562 23.5918 128.558 22.8233 132.341 23.3415C136.013 23.8447 139.439 25.5561 141.65 27.8015L141.86 28.0202C144.718 31.0775 146.138 34.1393 147.056 36.5661C147.287 37.1746 147.485 37.7429 147.668 38.2653C147.85 38.7843 148.019 39.2639 148.186 39.6823C148.353 40.0991 148.527 40.477 148.723 40.7868C148.919 41.0951 149.16 41.3711 149.475 41.5417C149.801 41.7177 150.254 41.766 150.705 41.779C151.179 41.7926 151.755 41.7665 152.389 41.7311C153.671 41.6597 155.234 41.5465 156.9 41.5983C160.138 41.6991 163.631 42.4204 166.002 45.1589L166.227 45.4294C168.555 48.3374 169.033 50.9498 169.075 53.0798C169.096 54.1738 169.005 55.0979 168.977 55.9655C168.951 56.7811 168.979 57.5892 169.35 58.2136C169.557 58.5601 169.888 58.8211 170.249 59.0358C170.613 59.2529 171.056 59.4503 171.533 59.6481C172.504 60.0511 173.655 60.4737 174.877 61.1159C177.288 62.3842 179.918 64.4878 181.398 68.822C182.882 73.1655 182.198 76.5228 181.232 79.0475C180.741 80.332 180.192 81.3678 179.779 82.2809C179.578 82.7247 179.406 83.1483 179.312 83.5349C179.219 83.919 179.189 84.3263 179.339 84.7057C179.49 85.088 179.834 85.4012 180.194 85.6725C180.57 85.9553 181.06 86.2616 181.603 86.6032C182.703 87.2946 184.104 88.1812 185.58 89.487C188.519 92.0881 191.791 96.3837 193.394 104.121C194.853 111.168 193.238 116.448 191.3 120.228C190.327 122.125 189.274 123.645 188.467 124.841C188.069 125.432 187.718 125.961 187.48 126.411C187.256 126.834 187.064 127.306 187.135 127.743C187.174 127.98 187.292 128.191 187.424 128.37C187.557 128.552 187.73 128.733 187.923 128.913C188.305 129.27 188.823 129.675 189.394 130.125C190.552 131.036 192.006 132.193 193.366 133.749C195.982 136.741 198.276 141.231 197.25 148.281L197.139 148.971C196.103 154.998 192.83 158.547 189.733 160.836C188.178 161.985 186.674 162.812 185.499 163.484C184.919 163.816 184.401 164.12 184.012 164.405C183.817 164.548 183.638 164.698 183.496 164.856C183.355 165.012 183.226 165.201 183.168 165.424C183.082 165.751 183.091 166.126 183.134 166.502C183.178 166.884 183.265 167.319 183.362 167.78C183.56 168.715 183.814 169.8 183.952 171.006C184.225 173.4 184.029 176.215 181.959 178.975C179.883 181.742 177.021 182.954 174.438 183.583C173.145 183.897 171.936 184.062 170.929 184.207C170.431 184.278 169.972 184.346 169.588 184.425C169.214 184.503 168.857 184.601 168.588 184.754C168.289 184.923 168.025 185.234 167.789 185.569C167.542 185.918 167.282 186.359 167.007 186.855C166.438 187.88 165.827 189.092 165.046 190.466C163.505 193.176 161.48 196.175 158.695 198.013C155.895 199.863 153.043 200.527 150.56 200.828C149.313 200.979 148.173 201.037 147.16 201.111C146.169 201.183 145.267 201.272 144.575 201.5C144.219 201.617 143.795 201.824 143.332 202.069C142.867 202.315 142.324 202.621 141.74 202.94C140.56 203.586 139.155 204.32 137.589 204.907C134.457 206.081 130.729 206.652 126.923 204.788C121.747 202.252 118.711 199.03 116.832 195.584C114.946 192.124 114.209 188.407 113.683 184.844C113.542 183.891 113.433 181.281 113.354 177.368C113.276 173.473 113.23 168.326 113.209 162.329C113.167 150.336 113.229 134.952 113.347 119.407C113.585 88.3126 114.052 56.5988 114.384 50.0837C115.093 37.0038 115.693 31.1794 121.38 26.322L121.381 26.321Z" fill="#FFF8EE" stroke="black" stroke-linejoin="bevel"/>
<path d="M109.017 53.4128C109.432 66.0498 110.551 176.438 109.287 184.116C108.149 191.032 103.79 203.522 95.4657 204.832C87.1419 206.143 81.7405 199.795 79.2424 198.964C76.7443 198.133 69.8383 202.417 64.3791 198.631C58.9199 194.846 60.116 184.938 58.592 183.256C57.0681 181.573 48.6188 183.559 44.5679 177.886C40.5169 172.213 44.0374 166.149 42.7546 164.505C41.4717 162.862 28.9908 161.376 27.2257 148.122C25.2195 132.913 37.2471 129.939 37.1796 127.572C37.1121 125.205 27.2065 112.265 32.222 96.3612C37.2375 80.4573 50.4322 78.7554 51.2038 77.3273C51.9754 75.8993 45.9375 67.1355 53.8851 54.4985C61.8328 41.8614 73.301 45.275 74.931 44.1502C76.5611 43.0254 74.6513 38.0468 80.178 30.9947C85.2803 24.4806 95.0413 22.8765 102.092 26.9943C108.487 30.7698 108.602 40.7757 109.017 53.4128Z" fill="#29A98C"/>
<path d="M111.999 116.096L82 61.493" stroke="#112F33" stroke-width="5" stroke-linecap="round"/>
<path d="M109.355 111.006H158.212" stroke="#112F33" stroke-width="5" stroke-linecap="round"/>
<path d="M116 123.782L145.268 178.797" stroke="#112F33" stroke-width="5" stroke-linecap="round"/>
<path d="M109.355 111.006H60.497" stroke="#112F33" stroke-width="5" stroke-linecap="round"/>
<path d="M109.355 111.006L141.218 73.4406" stroke="#112F33" stroke-width="5" stroke-linecap="round"/>
<path d="M109.355 111.006L77.491 148.571" stroke="#112F33" stroke-width="5" stroke-linecap="round"/>
<path d="M60.497 119.034C65.1898 119.034 68.994 115.296 68.994 110.686C68.994 106.075 65.1898 102.338 60.497 102.338C55.8042 102.338 52 106.075 52 110.686C52 115.296 55.8042 119.034 60.497 119.034Z" fill="#EC7367"/>
<path d="M147.497 191.534C152.19 191.534 155.994 187.796 155.994 183.186C155.994 178.575 152.19 174.838 147.497 174.838C142.804 174.838 139 178.575 139 183.186C139 187.796 142.804 191.534 147.497 191.534Z" fill="#112F33"/>
<path d="M141.218 81.7885C145.911 81.7885 149.715 78.051 149.715 73.4406C149.715 68.8303 145.911 65.0928 141.218 65.0928C136.526 65.0928 132.721 68.8303 132.721 73.4406C132.721 78.051 136.526 81.7885 141.218 81.7885Z" fill="#EC7367"/>
<path d="M77.491 156.919C82.1837 156.919 85.988 153.182 85.988 148.571C85.988 143.961 82.1837 140.223 77.491 140.223C72.7982 140.223 68.994 143.961 68.994 148.571C68.994 153.182 72.7982 156.919 77.491 156.919Z" fill="#FFF8EE"/>
<path d="M112.745 123.297C119.785 123.297 125.491 117.691 125.491 110.775C125.491 103.86 119.785 98.2535 112.745 98.2535C105.706 98.2535 100 103.86 100 110.775C100 117.691 105.706 123.297 112.745 123.297Z" fill="#29A98C" stroke="#112F33" stroke-width="8"/>
<path d="M77.497 61.8506C82.1898 61.8506 85.994 58.1132 85.994 53.5028C85.994 48.8924 82.1898 45.1549 77.497 45.1549C72.8042 45.1549 69 48.8924 69 53.5028C69 58.1132 72.8042 61.8506 77.497 61.8506Z" fill="#112F33"/>
<path d="M158.212 119.354C162.905 119.354 166.709 115.616 166.709 111.006C166.709 106.396 162.905 102.658 158.212 102.658C153.52 102.658 149.715 106.396 149.715 111.006C149.715 115.616 153.52 119.354 158.212 119.354Z" fill="#29A98C"/>
<path d="M221.093 187.373V61.3732H240.173L286.073 136.073L276.893 135.893L323.333 61.3732H341.333V187.373H321.893V135.713C321.893 124.913 322.133 115.193 322.613 106.553C323.213 97.9132 324.173 89.3332 325.493 80.8132L328.013 87.4732L286.793 151.193H274.913L234.953 88.1932L236.933 80.8132C238.253 88.8532 239.153 97.1332 239.633 105.653C240.233 114.053 240.533 124.073 240.533 135.713V187.373H221.093ZM375.04 187.373V92.8732H393.58V187.373H375.04ZM384.04 71.9932C380.08 71.9932 377.02 70.9732 374.86 68.9332C372.7 66.8932 371.62 64.0132 371.62 60.2932C371.62 56.8132 372.7 53.9932 374.86 51.8332C377.14 49.6732 380.2 48.5932 384.04 48.5932C388 48.5932 391.06 49.6132 393.22 51.6532C395.38 53.6932 396.46 56.5732 396.46 60.2932C396.46 63.7732 395.32 66.5932 393.04 68.7532C390.88 70.9132 387.88 71.9932 384.04 71.9932ZM422.077 187.373V92.8732H440.617V112.313L437.377 114.473C438.577 110.273 440.917 106.433 444.397 102.953C447.877 99.3532 452.017 96.4732 456.817 94.3132C461.617 92.0332 466.537 90.8932 471.577 90.8932C478.777 90.8932 484.777 92.3332 489.577 95.2132C494.377 97.9732 497.977 102.233 500.377 107.993C502.777 113.753 503.977 121.013 503.977 129.773V187.373H485.437V131.033C485.437 125.633 484.717 121.193 483.277 117.713C481.837 114.113 479.617 111.533 476.617 109.973C473.617 108.293 469.897 107.573 465.457 107.813C461.857 107.813 458.557 108.413 455.557 109.613C452.557 110.693 449.917 112.253 447.637 114.293C445.477 116.333 443.737 118.733 442.417 121.493C441.217 124.133 440.617 127.013 440.617 130.133V187.373H431.437C429.877 187.373 428.317 187.373 426.757 187.373C425.197 187.373 423.637 187.373 422.077 187.373ZM568.548 189.173C559.908 189.173 552.168 187.073 545.328 182.873C538.608 178.553 533.268 172.733 529.308 165.413C525.348 157.973 523.368 149.513 523.368 140.033C523.368 130.553 525.288 122.153 529.128 114.833C533.088 107.393 538.428 101.573 545.148 97.3732C551.868 93.0532 559.488 90.8932 568.008 90.8932C572.688 90.8932 577.188 91.6732 581.508 93.2332C585.948 94.6732 589.908 96.7132 593.388 99.3532C596.868 101.873 599.568 104.693 601.488 107.813C603.528 110.813 604.548 113.873 604.548 116.993L599.148 117.353V54.1732H617.688V187.373H599.148V164.873H602.748C602.748 167.753 601.788 170.633 599.868 173.513C597.948 176.273 595.368 178.853 592.128 181.253C589.008 183.653 585.348 185.573 581.148 187.013C577.068 188.453 572.868 189.173 568.548 189.173ZM571.068 173.153C576.708 173.153 581.688 171.713 586.008 168.833C590.328 165.953 593.688 162.053 596.088 157.133C598.608 152.093 599.868 146.393 599.868 140.033C599.868 133.673 598.608 128.033 596.088 123.113C593.688 118.073 590.328 114.113 586.008 111.233C581.688 108.353 576.708 106.913 571.068 106.913C565.428 106.913 560.448 108.353 556.128 111.233C551.808 114.113 548.388 118.073 545.868 123.113C543.468 128.033 542.268 133.673 542.268 140.033C542.268 146.393 543.468 152.093 545.868 157.133C548.388 162.053 551.808 165.953 556.128 168.833C560.448 171.713 565.428 173.153 571.068 173.153ZM730.15 187.373V61.3732H749.59V187.373H730.15ZM647.89 187.373V61.3732H667.33V187.373H647.89ZM656.35 133.913V115.193H738.79V133.913H656.35ZM813.264 189.173C806.544 189.173 800.664 187.613 795.624 184.493C790.704 181.373 786.864 176.993 784.104 171.353C781.464 165.713 780.144 158.993 780.144 151.193V92.8732H798.684V146.153C798.684 151.673 799.524 156.473 801.204 160.553C803.004 164.513 805.524 167.573 808.764 169.733C812.124 171.893 816.144 172.973 820.824 172.973C824.304 172.973 827.484 172.433 830.364 171.353C833.244 170.153 835.704 168.533 837.744 166.493C839.904 164.453 841.584 161.993 842.784 159.113C843.984 156.233 844.584 153.113 844.584 149.753V92.8732H863.124V187.373H844.584V167.573L847.824 165.413C846.384 169.853 843.924 173.873 840.444 177.473C837.084 181.073 833.064 183.953 828.384 186.113C823.704 188.153 818.664 189.173 813.264 189.173ZM938.808 189.173C934.728 189.173 930.648 188.513 926.568 187.193C922.608 185.873 918.948 184.133 915.588 181.973C912.348 179.693 909.588 177.233 907.308 174.593C905.148 171.833 903.708 169.073 902.988 166.313L907.668 163.793V186.833H889.128V54.1732H907.668V114.473L904.788 112.853C905.388 110.093 906.708 107.453 908.748 104.933C910.788 102.293 913.368 99.9532 916.488 97.9132C919.728 95.7532 923.208 94.0732 926.928 92.8732C930.648 91.5532 934.428 90.8932 938.268 90.8932C946.788 90.8932 954.348 92.9932 960.948 97.1932C967.548 101.393 972.768 107.213 976.608 114.653C980.448 121.973 982.368 130.373 982.368 139.853C982.368 149.333 980.448 157.793 976.608 165.233C972.888 172.673 967.728 178.553 961.128 182.873C954.528 187.073 947.088 189.173 938.808 189.173ZM935.748 172.253C941.268 172.253 946.188 170.873 950.508 168.113C954.828 165.233 958.248 161.393 960.768 156.593C963.288 151.673 964.548 146.093 964.548 139.853C964.548 133.733 963.288 128.273 960.768 123.473C958.368 118.553 955.008 114.713 950.688 111.953C946.368 109.193 941.388 107.813 935.748 107.813C930.108 107.813 925.128 109.193 920.808 111.953C916.488 114.713 913.068 118.553 910.548 123.473C908.028 128.273 906.768 133.733 906.768 139.853C906.768 146.093 908.028 151.673 910.548 156.593C913.068 161.393 916.488 165.233 920.808 168.113C925.128 170.873 930.108 172.253 935.748 172.253Z" fill="#112F33"/>
</svg>
