<svg width="637" height="729" viewBox="0 0 637 729" fill="none" xmlns="http://www.w3.org/2000/svg">
<rect width="637" height="729" fill="#F5F5F5"/>
<g clip-path="url(#clip0_0_1)">
<path d="M237.869 593.841C217.912 593.841 203.432 583.871 195.138 578.159L194.928 578.026L193.954 578.238C183.765 580.591 164.782 584.955 147.379 572.949C131.74 562.212 127.765 544.494 125.895 531.906C114.811 530.478 98.9617 526.749 88.1935 511.807C80.9008 501.477 77.5975 488.835 78.8997 476.238C42.0403 458.203 38.407 431.942 37.038 421.708C32.3516 387.118 48.1484 368.209 59.7855 358.107C51.887 340.865 39.7761 309.077 51.4131 272.477C55.0712 260.179 61.2175 248.772 69.4672 238.97C77.717 229.169 87.8925 221.183 99.3566 215.514C96.9081 201.366 96.7238 179.733 112.837 154.346C131.266 125.494 155.936 119.332 171.417 117.931C174.066 107.372 179.001 97.5294 185.871 89.1054C206.012 63.665 244.135 56.6305 272.754 73.2382C299.766 88.7616 300.898 122.823 302.057 158.895V162.121C302.899 187.455 306.585 495.332 302.531 519.688C297.449 550.391 279.915 588.049 247.242 593.153C244.139 593.621 241.006 593.851 237.869 593.841ZM197.797 535.026C200.607 535.006 203.404 535.416 206.091 536.243C210.707 537.9 215.041 540.264 218.939 543.251C226.837 548.725 233.104 552.507 240.897 551.184C248.032 550.074 258.036 530.954 261.09 512.601C264.039 490.968 261.327 201.577 260.063 163.39V160.137C259.379 139.404 258.563 113.594 251.796 109.68C241.265 103.571 226.206 106.163 218.965 115.313C214.586 120.46 211.932 126.864 211.383 133.613C210.619 139.061 209.224 149.189 199.64 155.51C193.559 159.529 187.319 159.635 181.816 159.741C171.706 159.926 159.121 160.19 148.38 177.089C136.98 195.045 140.481 207.475 142.693 215.699C144.193 221.12 146.458 229.318 141.666 237.86C137.638 245.027 131.345 247.645 125.869 249.946C115.97 254.071 99.5409 260.973 91.6425 285.356C83.7441 310.558 94.2753 332.482 100.62 345.572C103.753 352.025 106.018 356.706 106.176 362.709C106.518 375.27 97.4873 382.225 92.0901 386.509C84.1916 392.698 76.5038 398.516 78.926 416.26C80.848 430.567 90.0365 435.46 101.858 440.378C107.281 442.626 112.863 444.953 117.128 450.481C123.789 459.155 122.394 468.781 121.604 475.154C120.814 481.527 120.551 484.516 122.473 487.187C124.079 489.408 131.082 490.122 135.637 490.572C143.088 491.312 152.381 492.238 159.332 499.986C165.019 506.359 166.046 513.923 167.231 521.936C167.757 525.85 169.153 536.216 171.417 538.226C173.576 539.707 180.289 538.226 184.739 537.115C189 535.93 193.38 535.23 197.797 535.026Z" fill="#112F33"/>
<path d="M304.295 155.774C302.531 190.153 299.345 490.096 302.452 511.014C305.243 529.843 310.35 550.946 338.232 564.539C359.294 574.8 379.356 558.113 385.965 555.944C392.573 553.776 408.37 556.658 423.666 546.609C438.963 536.56 445.624 514.082 449.784 511.728C453.944 509.374 474.085 511.411 485.59 496.152C497.096 480.893 487.696 464.973 489.013 460.001C490.329 455.029 520.396 449.158 526.03 416.551C532.981 376.434 500.439 365.618 499.544 360.196C498.649 354.775 523.977 335.761 516.105 297.918C507.495 256.584 480.851 251.665 478.824 246.561C476.797 241.457 492.409 228.393 484.3 204.777C476.191 181.161 455.339 181.69 452.285 176.586C449.231 171.483 456.682 158.63 443.913 142.763C430.617 126.235 403.631 134.591 399.155 132.185C394.679 129.778 394.785 113.276 379.33 96.8274C367.219 83.9485 340.812 77.2843 323.277 92.2523C307.717 105.475 306.164 121.448 304.295 155.774Z" fill="#112F33"/>
<path d="M352.344 589.001C344.246 589.013 336.254 587.149 328.991 583.553C288.998 563.984 283.996 530.293 281.6 514.108C278.019 490.069 281.6 184.599 283.232 154.637C284.917 121.845 286.26 95.9547 309.56 76.0414C335.888 53.6157 374.749 61.1262 394.574 82.2031C402.382 90.5167 408.483 100.294 412.53 110.976C425.852 110.632 446.309 112.139 460.236 129.487C468.186 139.016 472.613 151.012 472.768 163.443C480.126 166.617 486.73 171.323 492.144 177.249C497.558 183.175 501.66 190.187 504.178 197.822C508.937 211.051 508.872 225.547 503.994 238.733C515.157 247.169 530.322 262.851 536.667 293.528C541.352 314.917 537.626 337.297 526.267 355.991C537.773 366.887 552.595 386.853 546.724 420.148C541.827 448.338 523.661 462.698 511.734 470.077C512.849 476.847 512.589 483.775 510.969 490.442C509.349 497.109 506.403 503.378 502.309 508.872C490.119 525.056 472.847 529.076 462.395 530.742C457.445 539.998 449.231 554.966 435.119 564.248C419.849 574.271 404.684 575.302 395.627 575.911L392.362 576.149L390.282 577.259C383.095 581.332 369.088 589.001 352.344 589.001ZM347.315 104.787C343.493 104.649 339.751 105.908 336.784 108.331C328.701 115.207 326.99 122.479 325.199 156.858C323.409 191.237 320.592 486.816 323.277 507.973C325.673 524.184 328.833 536.428 347.447 545.525C353.818 548.646 361.506 544.97 370.168 540.236C373.114 538.494 376.217 537.033 379.435 535.873C383.798 534.622 388.301 533.929 392.836 533.81C399.339 533.36 406 532.911 412.108 528.944C417.558 525.374 422.403 516.277 425.641 510.273C429.406 503.239 432.644 497.051 439.463 493.322C443.685 491.176 448.281 489.874 452.996 489.487C460.105 488.482 465.791 487.398 468.793 483.431C470.82 480.787 470.662 478.142 469.188 471.24C467.634 465.798 467.462 460.052 468.688 454.527C471.32 444.61 479.008 440.273 485.169 436.808C495.226 431.123 503.098 425.754 505.31 413.008C508.39 395.157 500.044 388.572 491.883 382.225C487.012 378.417 480.351 373.181 478.719 363.714C477.086 354.246 482.01 346.683 485.932 340.891C491.593 332.561 499.36 321.137 495.437 302.307C490.803 280.014 480.483 273.561 472.979 268.854C468.187 265.866 462.237 262.137 459.209 254.389C455.155 244.101 459.446 235.189 462 229.847C464.791 224.029 467.003 219.428 464.343 211.706C462 204.883 458.235 203.058 451.179 200.202C445.914 198.06 438.647 195.098 434.092 187.429C430.905 181.495 429.644 174.708 430.485 168.018C430.775 162.941 430.907 160.402 427.458 156.118C424.825 152.706 414.294 153.288 408.659 153.473C401.919 153.843 395.495 154.214 389.019 150.644C380.199 145.831 377.303 137.633 374.986 131.021C372.878 123.704 369.152 116.96 364.086 111.293C359.494 107.124 353.531 104.807 347.341 104.787H347.315Z" fill="#112F33"/>
<path d="M285.147 158.387C286.353 193.857 289.607 503.693 285.933 525.244C282.623 544.653 269.944 579.711 245.738 583.389C221.531 587.068 205.823 569.251 198.558 566.918C191.293 564.584 171.21 576.609 155.334 565.984C139.458 555.36 142.936 527.55 138.504 522.828C134.072 518.106 109.501 523.679 97.7202 507.756C85.9394 491.833 96.1774 474.812 92.4468 470.2C88.7163 465.588 52.4202 461.415 47.2871 424.216C41.4528 381.527 76.4306 373.181 76.2342 366.537C76.0379 359.893 47.231 323.573 61.8168 278.934C76.4025 234.295 114.774 229.518 117.018 225.51C119.262 221.502 101.703 196.904 124.816 161.435C147.929 125.965 181.28 135.546 186.02 132.389C190.76 129.232 185.207 115.259 201.279 95.4648C216.117 77.181 244.503 72.6787 265.008 84.2365C283.604 94.8334 283.941 122.918 285.147 158.387Z" fill="#29A98C"/>
<path d="M298.797 151.382C296.891 186.908 293.45 496.863 296.806 518.48C299.821 537.937 305.339 559.745 335.46 573.792C358.215 584.395 379.888 567.151 387.027 564.91C394.167 562.669 411.233 565.648 427.758 555.263C444.283 544.879 451.48 521.65 455.974 519.218C460.468 516.785 482.226 518.89 494.656 503.121C507.086 487.353 496.932 470.902 498.354 465.764C499.776 460.626 532.258 454.559 538.345 420.864C545.854 379.407 510.698 368.23 509.731 362.628C508.764 357.025 536.126 337.377 527.622 298.27C518.321 255.556 489.536 250.473 487.346 245.199C485.156 239.925 502.023 226.424 493.262 202.021C484.502 177.617 461.975 178.163 458.676 172.889C455.376 167.614 463.426 154.333 449.631 137.936C435.267 120.856 406.113 129.492 401.277 127.005C396.442 124.518 396.556 107.465 379.86 90.4672C366.776 77.1584 338.248 70.2718 319.305 85.7395C302.495 99.4035 300.816 115.91 298.797 151.382Z" fill="#FFF8EE"/>
<path d="M293.154 326.17V153.079" stroke="#112F33" stroke-width="12" stroke-linecap="round"/>
<path d="M293.154 326.17H427.026" stroke="#112F33" stroke-width="12" stroke-linecap="round"/>
<path d="M293.154 326.17V499.262" stroke="#112F33" stroke-width="12" stroke-linecap="round"/>
<path d="M293.154 326.17H159.282" stroke="#112F33" stroke-width="12" stroke-linecap="round"/>
<path d="M293.154 326.17L380.462 222.315" stroke="#112F33" stroke-width="12" stroke-linecap="round"/>
<path d="M293.154 326.17L205.846 430.025" stroke="#112F33" stroke-width="12" stroke-linecap="round"/>
<path d="M293.154 522.341C306.012 522.341 316.436 512.008 316.436 499.262C316.436 486.516 306.012 476.183 293.154 476.183C280.296 476.183 269.872 486.516 269.872 499.262C269.872 512.008 280.296 522.341 293.154 522.341Z" fill="#EC7367"/>
<path d="M159.282 349.249C172.14 349.249 182.564 338.916 182.564 326.17C182.564 313.424 172.14 303.091 159.282 303.091C146.424 303.091 136 313.424 136 326.17C136 338.916 146.424 349.249 159.282 349.249Z" fill="#112F33"/>
<path d="M380.462 245.394C393.32 245.394 403.744 235.062 403.744 222.315C403.744 209.569 393.32 199.237 380.462 199.237C367.604 199.237 357.18 209.569 357.18 222.315C357.18 235.062 367.604 245.394 380.462 245.394Z" fill="#EC7367"/>
<path d="M205.846 453.104C218.705 453.104 229.128 442.771 229.128 430.025C229.128 417.279 218.705 406.946 205.846 406.946C192.988 406.946 182.564 417.279 182.564 430.025C182.564 442.771 192.988 453.104 205.846 453.104Z" fill="#FFF8EE"/>
<path d="M293.154 360.789C312.442 360.789 328.077 345.289 328.077 326.17C328.077 307.051 312.442 291.552 293.154 291.552C273.867 291.552 258.231 307.051 258.231 326.17C258.231 345.289 273.867 360.789 293.154 360.789Z" fill="#29A98C" stroke="#112F33" stroke-width="8"/>
<path d="M293.154 176.158C306.012 176.158 316.436 165.825 316.436 153.079C316.436 140.333 306.012 130 293.154 130C280.296 130 269.872 140.333 269.872 153.079C269.872 165.825 280.296 176.158 293.154 176.158Z" fill="#112F33"/>
<path d="M427.026 349.249C439.884 349.249 450.308 338.916 450.308 326.17C450.308 313.424 439.884 303.091 427.026 303.091C414.168 303.091 403.744 313.424 403.744 326.17C403.744 338.916 414.168 349.249 427.026 349.249Z" fill="#112F33"/>
</g>
<defs>
<clipPath id="clip0_0_1">
<rect width="637" height="729" fill="white"/>
</clipPath>
</defs>
</svg>
