<svg width="647" height="729" viewBox="0 0 647 729" fill="none" xmlns="http://www.w3.org/2000/svg">
<rect width="647" height="729" fill="#F5F5F5"/>
<g clip-path="url(#clip0_0_1)">
<path d="M247.869 593.841C227.912 593.841 213.432 583.871 205.138 578.159L204.928 578.026L203.954 578.238C193.765 580.591 174.782 584.955 157.379 572.949C141.74 562.212 137.765 544.494 135.895 531.906C124.811 530.478 108.962 526.749 98.1935 511.807C90.9008 501.477 87.5975 488.835 88.8997 476.238C52.0403 458.203 48.407 431.942 47.038 421.708C42.3516 387.118 58.1484 368.209 69.7855 358.107C61.887 340.865 49.7761 309.077 61.4131 272.477C65.0712 260.179 71.2175 248.772 79.4672 238.97C87.717 229.169 97.8925 221.183 109.357 215.514C106.908 201.366 106.724 179.733 122.837 154.346C141.266 125.494 165.936 119.332 181.417 117.931C184.066 107.372 189.001 97.5294 195.871 89.1054C216.012 63.665 254.135 56.6305 282.754 73.2382C309.766 88.7616 310.898 122.823 312.057 158.895V162.121C312.899 187.455 316.585 495.332 312.531 519.688C307.449 550.391 289.915 588.049 257.242 593.153C254.139 593.621 251.006 593.851 247.869 593.841ZM207.797 535.026C210.607 535.006 213.404 535.416 216.091 536.243C220.707 537.9 225.041 540.264 228.939 543.251C236.837 548.725 243.104 552.507 250.897 551.184C258.032 550.074 268.036 530.954 271.09 512.601C274.039 490.968 271.327 201.577 270.063 163.39V160.137C269.379 139.404 268.563 113.594 261.796 109.68C251.265 103.571 236.206 106.163 228.965 115.313C224.586 120.46 221.932 126.864 221.383 133.613C220.619 139.061 219.224 149.189 209.64 155.51C203.559 159.529 197.319 159.635 191.816 159.741C181.706 159.926 169.121 160.19 158.38 177.089C146.98 195.045 150.481 207.475 152.693 215.699C154.193 221.12 156.458 229.318 151.666 237.86C147.638 245.027 141.345 247.645 135.869 249.946C125.97 254.071 109.541 260.973 101.642 285.356C93.7441 310.558 104.275 332.482 110.62 345.572C113.753 352.025 116.018 356.706 116.176 362.709C116.518 375.27 107.487 382.225 102.09 386.509C94.1916 392.698 86.5038 398.516 88.926 416.26C90.848 430.567 100.036 435.46 111.858 440.378C117.281 442.626 122.863 444.953 127.128 450.481C133.789 459.155 132.394 468.781 131.604 475.154C130.814 481.527 130.551 484.516 132.473 487.187C134.079 489.408 141.082 490.122 145.637 490.572C153.088 491.312 162.381 492.238 169.332 499.986C175.019 506.359 176.046 513.923 177.231 521.936C177.757 525.85 179.153 536.216 181.417 538.226C183.576 539.707 190.289 538.226 194.739 537.115C199 535.93 203.38 535.23 207.797 535.026Z" fill="#112F33"/>
<path d="M314.295 155.774C312.531 190.153 309.345 490.096 312.452 511.014C315.243 529.843 320.35 550.946 348.232 564.539C369.294 574.8 389.356 558.113 395.965 555.944C402.573 553.776 418.37 556.658 433.666 546.609C448.963 536.56 455.624 514.082 459.784 511.728C463.944 509.374 484.085 511.411 495.59 496.152C507.096 480.893 497.696 464.973 499.013 460.001C500.329 455.029 530.396 449.158 536.03 416.551C542.981 376.434 510.439 365.618 509.544 360.196C508.649 354.775 533.977 335.761 526.105 297.918C517.495 256.584 490.851 251.665 488.824 246.561C486.797 241.457 502.409 228.393 494.3 204.777C486.191 181.161 465.339 181.69 462.285 176.586C459.231 171.483 466.682 158.63 453.913 142.763C440.617 126.235 413.631 134.591 409.155 132.185C404.679 129.778 404.785 113.276 389.33 96.8274C377.219 83.9485 350.812 77.2843 333.277 92.2523C317.717 105.475 316.164 121.448 314.295 155.774Z" fill="#112F33"/>
<path d="M362.344 589.001C354.246 589.013 346.254 587.149 338.991 583.553C298.998 563.984 293.996 530.293 291.6 514.108C288.019 490.069 291.6 184.599 293.232 154.637C294.917 121.845 296.26 95.9547 319.56 76.0414C345.888 53.6157 384.749 61.1262 404.574 82.2031C412.382 90.5167 418.483 100.294 422.53 110.976C435.852 110.632 456.309 112.139 470.236 129.487C478.186 139.016 482.613 151.012 482.768 163.443C490.126 166.617 496.73 171.323 502.144 177.249C507.558 183.175 511.66 190.187 514.178 197.822C518.937 211.051 518.872 225.547 513.994 238.733C525.157 247.169 540.322 262.851 546.667 293.528C551.352 314.917 547.626 337.297 536.267 355.991C547.773 366.887 562.595 386.853 556.724 420.148C551.827 448.338 533.661 462.698 521.734 470.077C522.849 476.847 522.589 483.775 520.969 490.442C519.349 497.109 516.403 503.378 512.309 508.872C500.119 525.056 482.847 529.076 472.395 530.742C467.445 539.998 459.231 554.966 445.119 564.248C429.849 574.271 414.684 575.302 405.627 575.911L402.362 576.149L400.282 577.259C393.095 581.332 379.088 589.001 362.344 589.001ZM357.315 104.787C353.493 104.649 349.751 105.908 346.784 108.331C338.701 115.207 336.99 122.479 335.199 156.858C333.409 191.237 330.592 486.816 333.277 507.973C335.673 524.184 338.833 536.428 357.447 545.525C363.818 548.646 371.506 544.97 380.168 540.236C383.114 538.494 386.217 537.033 389.435 535.873C393.798 534.622 398.301 533.929 402.836 533.81C409.339 533.36 416 532.911 422.108 528.944C427.558 525.374 432.403 516.277 435.641 510.273C439.406 503.239 442.644 497.051 449.463 493.322C453.685 491.176 458.281 489.874 462.996 489.487C470.105 488.482 475.791 487.398 478.793 483.431C480.82 480.787 480.662 478.142 479.188 471.24C477.634 465.798 477.462 460.052 478.688 454.527C481.32 444.61 489.008 440.273 495.169 436.808C505.226 431.123 513.098 425.754 515.31 413.008C518.39 395.157 510.044 388.572 501.883 382.225C497.012 378.417 490.351 373.181 488.719 363.714C487.086 354.246 492.01 346.683 495.932 340.891C501.593 332.561 509.36 321.137 505.437 302.307C500.803 280.014 490.483 273.561 482.979 268.854C478.187 265.866 472.237 262.137 469.209 254.389C465.155 244.101 469.446 235.189 472 229.847C474.791 224.029 477.003 219.428 474.343 211.706C472 204.883 468.235 203.058 461.179 200.202C455.914 198.06 448.647 195.098 444.092 187.429C440.905 181.495 439.644 174.708 440.485 168.018C440.775 162.941 440.907 160.402 437.458 156.118C434.825 152.706 424.294 153.288 418.659 153.473C411.919 153.843 405.495 154.214 399.019 150.644C390.199 145.831 387.303 137.633 384.986 131.021C382.878 123.704 379.152 116.96 374.086 111.293C369.494 107.124 363.531 104.807 357.341 104.787H357.315Z" fill="#112F33"/>
<path d="M295.147 158.387C296.353 193.857 299.607 503.693 295.933 525.244C292.623 544.653 279.944 579.711 255.738 583.389C231.531 587.068 215.823 569.251 208.558 566.918C201.293 564.584 181.21 576.609 165.334 565.984C149.458 555.36 152.936 527.55 148.504 522.828C144.072 518.106 119.501 523.679 107.72 507.756C95.9394 491.833 106.177 474.812 102.447 470.2C98.7163 465.588 62.4202 461.415 57.2871 424.216C51.4528 381.527 86.4306 373.181 86.2342 366.537C86.0379 359.893 57.231 323.573 71.8168 278.934C86.4025 234.295 124.774 229.518 127.018 225.51C129.262 221.502 111.703 196.904 134.816 161.435C157.929 125.965 191.28 135.546 196.02 132.389C200.76 129.232 195.207 115.259 211.279 95.4648C226.117 77.181 254.503 72.6787 275.008 84.2365C293.604 94.8334 293.941 122.918 295.147 158.387Z" fill="#29A98C"/>
<path d="M308.797 151.382C306.891 186.908 303.45 496.863 306.806 518.48C309.821 537.937 315.339 559.745 345.46 573.792C368.215 584.395 389.888 567.151 397.027 564.91C404.167 562.669 421.233 565.648 437.758 555.263C454.283 544.879 461.48 521.65 465.974 519.218C470.468 516.785 492.226 518.89 504.656 503.121C517.086 487.353 506.932 470.902 508.354 465.764C509.776 460.626 542.258 454.559 548.345 420.864C555.854 379.407 520.698 368.23 519.731 362.628C518.764 357.025 546.126 337.377 537.622 298.27C528.321 255.556 499.536 250.473 497.346 245.199C495.156 239.925 512.023 226.424 503.262 202.021C494.502 177.617 471.975 178.163 468.676 172.889C465.376 167.614 473.426 154.333 459.631 137.936C445.267 120.856 416.113 129.492 411.277 127.005C406.442 124.518 406.556 107.465 389.86 90.4672C376.776 77.1584 348.248 70.2718 329.305 85.7395C312.495 99.4035 310.816 115.91 308.797 151.382Z" fill="#FFF8EE"/>
<path d="M303.154 326.17V153.079" stroke="#112F33" stroke-width="12" stroke-linecap="round"/>
<path d="M303.154 326.17H437.026" stroke="#112F33" stroke-width="12" stroke-linecap="round"/>
<path d="M303.154 326.17V499.262" stroke="#112F33" stroke-width="12" stroke-linecap="round"/>
<path d="M303.154 326.17H169.282" stroke="#112F33" stroke-width="12" stroke-linecap="round"/>
<path d="M303.154 326.17L390.462 222.315" stroke="#112F33" stroke-width="12" stroke-linecap="round"/>
<path d="M303.154 326.17L215.846 430.025" stroke="#112F33" stroke-width="12" stroke-linecap="round"/>
<path d="M303.154 522.341C316.012 522.341 326.436 512.008 326.436 499.262C326.436 486.516 316.012 476.183 303.154 476.183C290.296 476.183 279.872 486.516 279.872 499.262C279.872 512.008 290.296 522.341 303.154 522.341Z" fill="#EC7367"/>
<path d="M169.282 349.249C182.14 349.249 192.564 338.916 192.564 326.17C192.564 313.424 182.14 303.091 169.282 303.091C156.424 303.091 146 313.424 146 326.17C146 338.916 156.424 349.249 169.282 349.249Z" fill="#112F33"/>
<path d="M390.462 245.394C403.32 245.394 413.744 235.062 413.744 222.315C413.744 209.569 403.32 199.237 390.462 199.237C377.604 199.237 367.18 209.569 367.18 222.315C367.18 235.062 377.604 245.394 390.462 245.394Z" fill="#EC7367"/>
<path d="M215.846 453.104C228.705 453.104 239.128 442.771 239.128 430.025C239.128 417.279 228.705 406.946 215.846 406.946C202.988 406.946 192.564 417.279 192.564 430.025C192.564 442.771 202.988 453.104 215.846 453.104Z" fill="#FFF8EE"/>
<path d="M303.154 360.789C322.442 360.789 338.077 345.289 338.077 326.17C338.077 307.051 322.442 291.552 303.154 291.552C283.867 291.552 268.231 307.051 268.231 326.17C268.231 345.289 283.867 360.789 303.154 360.789Z" fill="#29A98C" stroke="#112F33" stroke-width="8"/>
<path d="M303.154 176.158C316.012 176.158 326.436 165.825 326.436 153.079C326.436 140.333 316.012 130 303.154 130C290.296 130 279.872 140.333 279.872 153.079C279.872 165.825 290.296 176.158 303.154 176.158Z" fill="#112F33"/>
<path d="M437.026 349.249C449.884 349.249 460.308 338.916 460.308 326.17C460.308 313.424 449.884 303.091 437.026 303.091C424.168 303.091 413.744 313.424 413.744 326.17C413.744 338.916 424.168 349.249 437.026 349.249Z" fill="#112F33"/>
</g>
<path d="M0.840931 718V613H16.7409L54.9909 675.25L47.3409 675.1L86.0409 613H101.041V718H84.8409V674.95C84.8409 665.95 85.0409 657.85 85.4409 650.65C85.9409 643.45 86.7409 636.3 87.8409 629.2L89.9409 634.75L55.5909 687.85H45.6909L12.3909 635.35L14.0409 629.2C15.1409 635.9 15.8909 642.8 16.2909 649.9C16.7909 656.9 17.0409 665.25 17.0409 674.95V718H0.840931ZM129.13 718V639.25H144.58V718H129.13ZM136.63 621.85C133.33 621.85 130.78 621 128.98 619.3C127.18 617.6 126.28 615.2 126.28 612.1C126.28 609.2 127.18 606.85 128.98 605.05C130.88 603.25 133.43 602.35 136.63 602.35C139.93 602.35 142.48 603.2 144.28 604.9C146.08 606.6 146.98 609 146.98 612.1C146.98 615 146.03 617.35 144.13 619.15C142.33 620.95 139.83 621.85 136.63 621.85ZM168.328 718V639.25H183.778V655.45L181.078 657.25C182.078 653.75 184.028 650.55 186.928 647.65C189.828 644.65 193.278 642.25 197.278 640.45C201.278 638.55 205.378 637.6 209.578 637.6C215.578 637.6 220.578 638.8 224.578 641.2C228.578 643.5 231.578 647.05 233.578 651.85C235.578 656.65 236.578 662.7 236.578 670V718H221.128V671.05C221.128 666.55 220.528 662.85 219.328 659.95C218.128 656.95 216.278 654.8 213.778 653.5C211.278 652.1 208.178 651.5 204.478 651.7C201.478 651.7 198.728 652.2 196.228 653.2C193.728 654.1 191.528 655.4 189.628 657.1C187.828 658.8 186.378 660.8 185.278 663.1C184.278 665.3 183.778 667.7 183.778 670.3V718H176.128C174.828 718 173.528 718 172.228 718C170.928 718 169.628 718 168.328 718ZM290.387 719.5C283.187 719.5 276.737 717.75 271.037 714.25C265.437 710.65 260.987 705.8 257.687 699.7C254.387 693.5 252.737 686.45 252.737 678.55C252.737 670.65 254.337 663.65 257.537 657.55C260.837 651.35 265.287 646.5 270.887 643C276.487 639.4 282.837 637.6 289.937 637.6C293.837 637.6 297.587 638.25 301.187 639.55C304.887 640.75 308.187 642.45 311.087 644.65C313.987 646.75 316.237 649.1 317.837 651.7C319.537 654.2 320.387 656.75 320.387 659.35L315.887 659.65V607H331.337V718H315.887V699.25H318.887C318.887 701.65 318.087 704.05 316.487 706.45C314.887 708.75 312.737 710.9 310.037 712.9C307.437 714.9 304.387 716.5 300.887 717.7C297.487 718.9 293.987 719.5 290.387 719.5ZM292.487 706.15C297.187 706.15 301.337 704.95 304.937 702.55C308.537 700.15 311.337 696.9 313.337 692.8C315.437 688.6 316.487 683.85 316.487 678.55C316.487 673.25 315.437 668.55 313.337 664.45C311.337 660.25 308.537 656.95 304.937 654.55C301.337 652.15 297.187 650.95 292.487 650.95C287.787 650.95 283.637 652.15 280.037 654.55C276.437 656.95 273.587 660.25 271.487 664.45C269.487 668.55 268.487 673.25 268.487 678.55C268.487 683.85 269.487 688.6 271.487 692.8C273.587 696.9 276.437 700.15 280.037 702.55C283.637 704.95 287.787 706.15 292.487 706.15ZM425.055 718V613H441.255V718H425.055ZM356.505 718V613H372.705V718H356.505ZM363.555 673.45V657.85H432.255V673.45H363.555ZM494.316 719.5C488.716 719.5 483.816 718.2 479.616 715.6C475.516 713 472.316 709.35 470.016 704.65C467.816 699.95 466.716 694.35 466.716 687.85V639.25H482.166V683.65C482.166 688.25 482.866 692.25 484.266 695.65C485.766 698.95 487.866 701.5 490.566 703.3C493.366 705.1 496.716 706 500.616 706C503.516 706 506.166 705.55 508.566 704.65C510.966 703.65 513.016 702.3 514.716 700.6C516.516 698.9 517.916 696.85 518.916 694.45C519.916 692.05 520.416 689.45 520.416 686.65V639.25H535.866V718H520.416V701.5L523.116 699.7C521.916 703.4 519.866 706.75 516.966 709.75C514.166 712.75 510.816 715.15 506.916 716.95C503.016 718.65 498.816 719.5 494.316 719.5ZM598.937 719.5C595.537 719.5 592.137 718.95 588.737 717.85C585.437 716.75 582.387 715.3 579.587 713.5C576.887 711.6 574.587 709.55 572.687 707.35C570.887 705.05 569.687 702.75 569.087 700.45L572.987 698.35V717.55H557.537V607H572.987V657.25L570.587 655.9C571.087 653.6 572.187 651.4 573.887 649.3C575.587 647.1 577.737 645.15 580.337 643.45C583.037 641.65 585.937 640.25 589.037 639.25C592.137 638.15 595.287 637.6 598.487 637.6C605.587 637.6 611.887 639.35 617.387 642.85C622.887 646.35 627.237 651.2 630.437 657.4C633.637 663.5 635.237 670.5 635.237 678.4C635.237 686.3 633.637 693.35 630.437 699.55C627.337 705.75 623.037 710.65 617.537 714.25C612.037 717.75 605.837 719.5 598.937 719.5ZM596.387 705.4C600.987 705.4 605.087 704.25 608.687 701.95C612.287 699.55 615.137 696.35 617.237 692.35C619.337 688.25 620.387 683.6 620.387 678.4C620.387 673.3 619.337 668.75 617.237 664.75C615.237 660.65 612.437 657.45 608.837 655.15C605.237 652.85 601.087 651.7 596.387 651.7C591.687 651.7 587.537 652.85 583.937 655.15C580.337 657.45 577.487 660.65 575.387 664.75C573.287 668.75 572.237 673.3 572.237 678.4C572.237 683.6 573.287 688.25 575.387 692.35C577.487 696.35 580.337 699.55 583.937 701.95C587.537 704.25 591.687 705.4 596.387 705.4Z" fill="#112F33"/>
<defs>
<clipPath id="clip0_0_1">
<rect width="637" height="729" fill="white" transform="translate(10)"/>
</clipPath>
</defs>
</svg>
